<?xml version="1.0" encoding="UTF-8"?>
<svg id="Layer_1" data-name="Layer 1" xmlns="http://www.w3.org/2000/svg" viewBox="0 0 1080 1080">
  <defs>
    <style>
      .cls-1 {
        fill: #fa441a;
      }

      .cls-2 {
        fill: #fff;
      }
    </style>
  </defs>
  <circle class="cls-1" cx="540" cy="540" r="510.45"/>
  <g>
    <path class="cls-2" d="M346.45,243.73h-47.4v330.4h47.4c32.58,0,62.95-9.52,88.57-25.86v-197.29h66.11c-23.52-62.59-83.98-107.26-154.69-107.26Z"/>
    <path class="cls-2" d="M544.54,671.06c0-58.13,26.26-110.11,67.55-144.78v-151.48h-153.26v330.4h88.84c-2.02-11.08-3.13-22.47-3.13-34.14h0Z"/>
    <path class="cls-2" d="M733.55,505.86c-36.51,0-70.28,11.93-97.65,32.06-4.12,3.03-8.09,6.25-11.9,9.64-4.16,3.69-8.14,7.58-11.9,11.67-27.13,29.45-43.74,68.73-43.74,111.83,0,11.7,1.24,23.12,3.57,34.14.85,4.03,1.87,7.99,3.01,11.9,1.17,4.03,2.47,8.01,3.94,11.9,23.52,62.59,83.98,107.26,154.69,107.26h47.4v-330.4h-47.4Z"/>
  </g>
</svg>