<?xml version="1.0" encoding="UTF-8"?>
<svg id="Layer_1" data-name="Layer 1" xmlns="http://www.w3.org/2000/svg" viewBox="0 0 1920 709.27">
  <defs>
    <style>
      .cls-1 {
        fill: #f5f749;
      }

      .cls-2 {
        fill: #fff;
      }

      .cls-3 {
        fill: #4d4e03;
      }
    </style>
  </defs>
  <rect class="cls-1" x="63.54" y="57.44" width="1802.59" height="594.2" rx="297.1" ry="297.1"/>
  <g>
    <path class="cls-3" d="M793.18,199.78h11.22v7.27h.21c1.66-3.12,3.98-5.35,6.96-6.7,2.98-1.35,6.2-2.03,9.67-2.03,4.23,0,7.91.75,11.07,2.23,3.15,1.49,5.77,3.53,7.85,6.13,2.08,2.6,3.64,5.63,4.68,9.09,1.04,3.47,1.56,7.17,1.56,11.12,0,3.6-.47,7.1-1.4,10.5-.94,3.4-2.36,6.39-4.26,8.99-1.91,2.6-4.31,4.68-7.22,6.24-2.91,1.56-6.34,2.34-10.29,2.34-1.73,0-3.47-.16-5.2-.47-1.73-.31-3.4-.81-4.99-1.51-1.59-.69-3.07-1.58-4.42-2.65-1.35-1.07-2.48-2.34-3.38-3.79h-.21v26.81h-11.85v-73.58ZM834.54,226.69c0-2.42-.31-4.78-.94-7.07-.62-2.29-1.56-4.31-2.81-6.08-1.25-1.77-2.81-3.19-4.68-4.26-1.87-1.07-4.02-1.61-6.44-1.61-4.99,0-8.75,1.73-11.28,5.2-2.53,3.47-3.79,8.07-3.79,13.82,0,2.7.33,5.21.99,7.53.66,2.32,1.64,4.31,2.96,5.98,1.32,1.66,2.89,2.98,4.73,3.95,1.83.97,3.96,1.46,6.39,1.46,2.7,0,4.99-.55,6.86-1.66,1.87-1.11,3.41-2.55,4.62-4.31,1.21-1.77,2.08-3.78,2.6-6.03.52-2.25.78-4.55.78-6.91Z"/>
    <path class="cls-3" d="M856.68,179.3h11.85v74.2h-11.85v-74.2Z"/>
    <path class="cls-3" d="M926.41,241.56c0,1.46.19,2.49.57,3.12s1.13.94,2.23.94h1.25c.48,0,1.04-.07,1.66-.21v8.21c-.42.14-.95.29-1.61.47-.66.17-1.33.33-2.03.47-.69.14-1.39.24-2.08.31-.69.07-1.28.1-1.77.1-2.43,0-4.43-.49-6.03-1.46-1.59-.97-2.63-2.67-3.12-5.09-2.36,2.29-5.25,3.95-8.68,4.99-3.43,1.04-6.74,1.56-9.92,1.56-2.43,0-4.75-.33-6.96-.99-2.22-.66-4.17-1.63-5.87-2.91-1.7-1.28-3.05-2.91-4.05-4.88-1.01-1.97-1.51-4.28-1.51-6.91,0-3.33.61-6.03,1.82-8.11,1.21-2.08,2.81-3.71,4.78-4.88,1.97-1.18,4.19-2.03,6.65-2.55,2.46-.52,4.94-.92,7.43-1.19,2.15-.42,4.19-.71,6.13-.88,1.94-.17,3.65-.47,5.14-.88,1.49-.42,2.67-1.06,3.53-1.92.87-.87,1.3-2.16,1.3-3.9,0-1.52-.36-2.77-1.09-3.74-.73-.97-1.63-1.71-2.7-2.23-1.08-.52-2.27-.87-3.59-1.04-1.32-.17-2.56-.26-3.74-.26-3.33,0-6.06.69-8.21,2.08-2.15,1.39-3.36,3.53-3.64,6.44h-11.85c.21-3.46,1.04-6.34,2.5-8.63,1.45-2.29,3.31-4.12,5.56-5.51,2.25-1.39,4.8-2.35,7.64-2.91,2.84-.55,5.75-.83,8.73-.83,2.63,0,5.23.28,7.79.83,2.56.56,4.87,1.45,6.91,2.7,2.04,1.25,3.69,2.86,4.94,4.83,1.25,1.97,1.87,4.38,1.87,7.22v27.64ZM914.57,226.59c-1.8,1.18-4.02,1.89-6.65,2.13-2.63.24-5.27.61-7.9,1.09-1.25.21-2.46.5-3.64.88-1.18.38-2.22.9-3.12,1.56-.9.66-1.61,1.52-2.13,2.6-.52,1.08-.78,2.37-.78,3.9,0,1.32.38,2.43,1.14,3.33.76.9,1.68,1.61,2.75,2.13,1.07.52,2.25.88,3.53,1.09,1.28.21,2.44.31,3.48.31,1.32,0,2.74-.17,4.26-.52,1.52-.35,2.96-.94,4.31-1.77,1.35-.83,2.48-1.89,3.38-3.17.9-1.28,1.35-2.86,1.35-4.73v-8.83Z"/>
    <path class="cls-3" d="M933.79,199.78h8.94v-16.11h11.85v16.11h10.71v8.83h-10.71v28.68c0,1.25.05,2.32.16,3.22.1.9.35,1.66.73,2.29.38.62.95,1.09,1.71,1.4.76.31,1.8.47,3.12.47.83,0,1.66-.02,2.5-.05.83-.03,1.66-.16,2.49-.36v9.15c-1.32.14-2.6.28-3.85.42-1.25.14-2.53.21-3.84.21-3.12,0-5.63-.3-7.54-.88-1.91-.59-3.4-1.46-4.47-2.6-1.08-1.14-1.8-2.58-2.18-4.31-.38-1.73-.61-3.71-.68-5.92v-31.7h-8.94v-8.83Z"/>
    <path class="cls-3" d="M1018.8,241.56c0,1.46.19,2.49.57,3.12s1.13.94,2.23.94h1.25c.48,0,1.04-.07,1.66-.21v8.21c-.42.14-.95.29-1.61.47-.66.17-1.33.33-2.03.47-.69.14-1.39.24-2.08.31-.69.07-1.28.1-1.77.1-2.43,0-4.43-.49-6.03-1.46-1.59-.97-2.63-2.67-3.12-5.09-2.36,2.29-5.25,3.95-8.68,4.99-3.43,1.04-6.74,1.56-9.92,1.56-2.43,0-4.75-.33-6.96-.99-2.22-.66-4.17-1.63-5.87-2.91-1.7-1.28-3.05-2.91-4.05-4.88-1.01-1.97-1.51-4.28-1.51-6.91,0-3.33.61-6.03,1.82-8.11,1.21-2.08,2.81-3.71,4.78-4.88,1.97-1.18,4.19-2.03,6.65-2.55,2.46-.52,4.94-.92,7.43-1.19,2.15-.42,4.19-.71,6.13-.88,1.94-.17,3.65-.47,5.14-.88,1.49-.42,2.67-1.06,3.53-1.92.87-.87,1.3-2.16,1.3-3.9,0-1.52-.36-2.77-1.09-3.74-.73-.97-1.63-1.71-2.7-2.23-1.08-.52-2.27-.87-3.59-1.04-1.32-.17-2.56-.26-3.74-.26-3.33,0-6.06.69-8.21,2.08-2.15,1.39-3.36,3.53-3.64,6.44h-11.85c.21-3.46,1.04-6.34,2.5-8.63,1.45-2.29,3.31-4.12,5.56-5.51,2.25-1.39,4.8-2.35,7.64-2.91,2.84-.55,5.75-.83,8.73-.83,2.63,0,5.23.28,7.79.83,2.56.56,4.87,1.45,6.91,2.7,2.04,1.25,3.69,2.86,4.94,4.83,1.25,1.97,1.87,4.38,1.87,7.22v27.64ZM1006.95,226.59c-1.8,1.18-4.02,1.89-6.65,2.13-2.63.24-5.27.61-7.9,1.09-1.25.21-2.46.5-3.64.88-1.18.38-2.22.9-3.12,1.56-.9.66-1.61,1.52-2.13,2.6-.52,1.08-.78,2.37-.78,3.9,0,1.32.38,2.43,1.14,3.33.76.9,1.68,1.61,2.75,2.13,1.07.52,2.25.88,3.53,1.09,1.28.21,2.44.31,3.48.31,1.32,0,2.74-.17,4.26-.52,1.52-.35,2.96-.94,4.31-1.77,1.35-.83,2.48-1.89,3.38-3.17.9-1.28,1.35-2.86,1.35-4.73v-8.83Z"/>
    <path class="cls-3" d="M1026.29,199.78h8.83v-4.47c0-3.39.42-6.15,1.25-8.26.83-2.11,1.94-3.74,3.33-4.88,1.38-1.14,2.96-1.9,4.73-2.29,1.77-.38,3.62-.57,5.56-.57,3.81,0,6.58.24,8.31.73v9.25c-.76-.21-1.58-.36-2.44-.47-.87-.1-1.89-.16-3.07-.16-1.59,0-2.96.38-4.11,1.14-1.14.76-1.71,2.25-1.71,4.47v5.51h10.08v8.83h-10.08v44.9h-11.85v-44.9h-8.83v-8.83Z"/>
    <path class="cls-3" d="M1088.95,254.96c-4.3,0-8.12-.71-11.48-2.13-3.36-1.42-6.2-3.38-8.52-5.87-2.32-2.49-4.09-5.47-5.3-8.94-1.21-3.46-1.82-7.27-1.82-11.43s.61-7.86,1.82-11.33c1.21-3.46,2.98-6.44,5.3-8.94,2.32-2.49,5.16-4.45,8.52-5.87,3.36-1.42,7.19-2.13,11.48-2.13s8.12.71,11.48,2.13c3.36,1.42,6.2,3.38,8.52,5.87,2.32,2.49,4.09,5.47,5.3,8.94,1.21,3.47,1.82,7.24,1.82,11.33s-.61,7.97-1.82,11.43c-1.21,3.47-2.98,6.44-5.3,8.94-2.32,2.49-5.16,4.45-8.52,5.87-3.36,1.42-7.19,2.13-11.48,2.13ZM1088.95,245.61c2.63,0,4.92-.55,6.86-1.66,1.94-1.11,3.53-2.56,4.78-4.37,1.25-1.8,2.16-3.83,2.75-6.08.59-2.25.88-4.55.88-6.91s-.3-4.57-.88-6.86c-.59-2.29-1.51-4.31-2.75-6.08s-2.84-3.2-4.78-4.31c-1.94-1.11-4.23-1.66-6.86-1.66s-4.92.56-6.86,1.66c-1.94,1.11-3.53,2.55-4.78,4.31s-2.17,3.79-2.75,6.08c-.59,2.29-.88,4.57-.88,6.86s.29,4.66.88,6.91c.59,2.25,1.51,4.28,2.75,6.08,1.25,1.8,2.84,3.26,4.78,4.37,1.94,1.11,4.23,1.66,6.86,1.66Z"/>
    <path class="cls-3" d="M1125.95,199.78h11.12v10.39h.21c.35-1.46,1.02-2.87,2.03-4.26,1-1.39,2.22-2.65,3.64-3.79,1.42-1.14,3-2.06,4.73-2.75,1.73-.69,3.5-1.04,5.3-1.04,1.39,0,2.34.04,2.86.1.52.07,1.06.14,1.61.21v11.43c-.83-.14-1.68-.26-2.55-.36-.87-.1-1.71-.16-2.55-.16-2.01,0-3.9.4-5.66,1.19-1.77.8-3.31,1.97-4.62,3.53-1.32,1.56-2.36,3.48-3.12,5.77-.76,2.29-1.14,4.92-1.14,7.9v25.57h-11.85v-53.73Z"/>
    <path class="cls-3" d="M1162.53,199.78h11.22v7.48h.31c.9-1.32,1.87-2.53,2.91-3.64,1.04-1.11,2.2-2.04,3.48-2.81,1.28-.76,2.75-1.37,4.42-1.82,1.66-.45,3.57-.68,5.72-.68,3.26,0,6.29.73,9.09,2.18,2.81,1.45,4.8,3.71,5.98,6.75,2.01-2.77,4.33-4.95,6.96-6.55,2.63-1.59,5.92-2.39,9.87-2.39,5.68,0,10.1,1.39,13.25,4.16,3.15,2.77,4.73,7.41,4.73,13.93v37.1h-11.85v-31.39c0-2.15-.07-4.1-.21-5.87-.14-1.77-.54-3.29-1.2-4.57-.66-1.28-1.65-2.27-2.96-2.96-1.32-.69-3.12-1.04-5.4-1.04-4.02,0-6.93,1.25-8.73,3.74-1.8,2.49-2.7,6.03-2.7,10.6v31.49h-11.85v-34.5c0-3.74-.68-6.56-2.03-8.47-1.35-1.9-3.83-2.86-7.43-2.86-1.53,0-3,.31-4.42.94-1.42.62-2.67,1.52-3.74,2.7-1.08,1.18-1.94,2.63-2.6,4.36-.66,1.73-.99,3.71-.99,5.92v31.91h-11.85v-53.73Z"/>
    <path class="cls-3" d="M1297.94,241.56c0,1.46.19,2.49.57,3.12s1.13.94,2.23.94h1.25c.48,0,1.04-.07,1.66-.21v8.21c-.42.14-.95.29-1.61.47-.66.17-1.33.33-2.03.47-.69.14-1.39.24-2.08.31-.69.07-1.28.1-1.77.1-2.43,0-4.43-.49-6.03-1.46-1.59-.97-2.63-2.67-3.12-5.09-2.36,2.29-5.25,3.95-8.68,4.99-3.43,1.04-6.74,1.56-9.92,1.56-2.43,0-4.75-.33-6.96-.99-2.22-.66-4.17-1.63-5.87-2.91-1.7-1.28-3.05-2.91-4.05-4.88-1.01-1.97-1.51-4.28-1.51-6.91,0-3.33.61-6.03,1.82-8.11,1.21-2.08,2.81-3.71,4.78-4.88,1.97-1.18,4.19-2.03,6.65-2.55,2.46-.52,4.94-.92,7.43-1.19,2.15-.42,4.19-.71,6.13-.88,1.94-.17,3.65-.47,5.14-.88,1.49-.42,2.67-1.06,3.53-1.92.87-.87,1.3-2.16,1.3-3.9,0-1.52-.36-2.77-1.09-3.74-.73-.97-1.63-1.71-2.7-2.23-1.08-.52-2.27-.87-3.59-1.04-1.32-.17-2.56-.26-3.74-.26-3.33,0-6.06.69-8.21,2.08-2.15,1.39-3.36,3.53-3.64,6.44h-11.85c.21-3.46,1.04-6.34,2.5-8.63,1.45-2.29,3.31-4.12,5.56-5.51,2.25-1.39,4.8-2.35,7.64-2.91,2.84-.55,5.75-.83,8.73-.83,2.63,0,5.23.28,7.79.83,2.56.56,4.87,1.45,6.91,2.7,2.04,1.25,3.69,2.86,4.94,4.83,1.25,1.97,1.87,4.38,1.87,7.22v27.64ZM1286.09,226.59c-1.8,1.18-4.02,1.89-6.65,2.13-2.63.24-5.27.61-7.9,1.09-1.25.21-2.46.5-3.64.88-1.18.38-2.22.9-3.12,1.56-.9.66-1.61,1.52-2.13,2.6-.52,1.08-.78,2.37-.78,3.9,0,1.32.38,2.43,1.14,3.33.76.9,1.68,1.61,2.75,2.13,1.07.52,2.25.88,3.53,1.09,1.28.21,2.44.31,3.48.31,1.32,0,2.74-.17,4.26-.52,1.52-.35,2.96-.94,4.31-1.77,1.35-.83,2.48-1.89,3.38-3.17.9-1.28,1.35-2.86,1.35-4.73v-8.83Z"/>
    <path class="cls-3" d="M793.18,309.56h11.85v11.22h-11.85v-11.22ZM793.18,330.03h11.85v53.73h-11.85v-53.73Z"/>
    <path class="cls-3" d="M817.91,330.03h11.22v7.9l.21.21c1.8-2.98,4.16-5.32,7.07-7.02,2.91-1.7,6.13-2.55,9.67-2.55,5.89,0,10.53,1.52,13.93,4.57,3.39,3.05,5.09,7.62,5.09,13.72v36.89h-11.85v-33.78c-.14-4.23-1.04-7.29-2.7-9.2-1.66-1.9-4.26-2.86-7.79-2.86-2.01,0-3.81.36-5.4,1.09-1.59.73-2.95,1.73-4.05,3.01-1.11,1.28-1.97,2.79-2.6,4.52-.62,1.73-.94,3.57-.94,5.51v31.7h-11.85v-53.73Z"/>
    <path class="cls-3" d="M872.16,330.03h8.94v-16.11h11.85v16.11h10.71v8.83h-10.71v28.68c0,1.25.05,2.32.16,3.22.1.9.35,1.66.73,2.29.38.62.95,1.09,1.71,1.4.76.31,1.8.47,3.12.47.83,0,1.66-.02,2.5-.05.83-.03,1.66-.16,2.49-.36v9.15c-1.32.14-2.6.28-3.85.42-1.25.14-2.53.21-3.84.21-3.12,0-5.63-.3-7.54-.88-1.91-.59-3.4-1.46-4.47-2.6-1.08-1.14-1.8-2.58-2.18-4.31-.38-1.73-.61-3.71-.68-5.92v-31.7h-8.94v-8.83Z"/>
    <path class="cls-3" d="M921.42,359.96c0,2.08.29,4.09.88,6.03.59,1.94,1.47,3.64,2.65,5.09,1.18,1.46,2.67,2.62,4.47,3.48,1.8.87,3.95,1.3,6.44,1.3,3.46,0,6.25-.74,8.37-2.23,2.11-1.49,3.69-3.72,4.73-6.7h11.22c-.62,2.91-1.7,5.51-3.22,7.79-1.52,2.29-3.36,4.21-5.51,5.77-2.15,1.56-4.56,2.74-7.22,3.53-2.67.8-5.46,1.2-8.37,1.2-4.23,0-7.97-.69-11.22-2.08-3.26-1.39-6.01-3.33-8.26-5.82-2.25-2.49-3.95-5.47-5.09-8.94-1.14-3.46-1.71-7.27-1.71-11.43,0-3.81.61-7.43,1.82-10.86,1.21-3.43,2.94-6.44,5.2-9.04,2.25-2.6,4.97-4.66,8.16-6.18,3.19-1.52,6.79-2.29,10.81-2.29,4.22,0,8.02.88,11.38,2.65,3.36,1.77,6.15,4.1,8.37,7.02,2.22,2.91,3.83,6.25,4.83,10.03,1,3.78,1.26,7.67.78,11.69h-39.49ZM949.07,352.17c-.14-1.87-.54-3.67-1.19-5.4-.66-1.73-1.56-3.24-2.7-4.52-1.14-1.28-2.53-2.32-4.16-3.12-1.63-.8-3.45-1.2-5.46-1.2s-3.97.36-5.66,1.09c-1.7.73-3.15,1.73-4.37,3.01-1.21,1.28-2.18,2.79-2.91,4.52-.73,1.73-1.13,3.6-1.19,5.61h27.64Z"/>
    <path class="cls-3" d="M969.96,330.03h11.12v10.39h.21c.35-1.46,1.02-2.87,2.03-4.26,1-1.39,2.22-2.65,3.64-3.79,1.42-1.14,3-2.06,4.73-2.75,1.73-.69,3.5-1.04,5.3-1.04,1.39,0,2.34.04,2.86.1.52.07,1.06.14,1.61.21v11.43c-.83-.14-1.68-.26-2.55-.36-.87-.1-1.71-.16-2.55-.16-2.01,0-3.9.4-5.66,1.19-1.77.8-3.31,1.97-4.62,3.53-1.32,1.56-2.36,3.48-3.12,5.77-.76,2.29-1.14,4.92-1.14,7.9v25.57h-11.85v-53.73Z"/>
    <path class="cls-3" d="M1051.54,371.81c0,1.46.19,2.49.57,3.12s1.13.94,2.23.94h1.25c.48,0,1.04-.07,1.66-.21v8.21c-.42.14-.95.29-1.61.47-.66.17-1.33.33-2.03.47-.69.14-1.39.24-2.08.31-.69.07-1.28.1-1.77.1-2.43,0-4.43-.49-6.03-1.46-1.59-.97-2.63-2.67-3.12-5.09-2.36,2.29-5.25,3.95-8.68,4.99-3.43,1.04-6.74,1.56-9.92,1.56-2.43,0-4.75-.33-6.96-.99-2.22-.66-4.17-1.63-5.87-2.91-1.7-1.28-3.05-2.91-4.05-4.88-1.01-1.97-1.51-4.28-1.51-6.91,0-3.33.61-6.03,1.82-8.11,1.21-2.08,2.81-3.71,4.78-4.88,1.97-1.18,4.19-2.03,6.65-2.55,2.46-.52,4.94-.92,7.43-1.19,2.15-.42,4.19-.71,6.13-.88,1.94-.17,3.65-.47,5.14-.88,1.49-.42,2.67-1.06,3.53-1.92.87-.87,1.3-2.16,1.3-3.9,0-1.52-.36-2.77-1.09-3.74-.73-.97-1.63-1.71-2.7-2.23-1.08-.52-2.27-.87-3.59-1.04-1.32-.17-2.56-.26-3.74-.26-3.33,0-6.06.69-8.21,2.08-2.15,1.39-3.36,3.53-3.64,6.44h-11.85c.21-3.46,1.04-6.34,2.5-8.63,1.45-2.29,3.31-4.12,5.56-5.51,2.25-1.39,4.8-2.35,7.64-2.91,2.84-.55,5.75-.83,8.73-.83,2.63,0,5.23.28,7.79.83,2.56.56,4.87,1.45,6.91,2.7,2.04,1.25,3.69,2.86,4.94,4.83,1.25,1.97,1.87,4.38,1.87,7.22v27.64ZM1039.69,356.84c-1.8,1.18-4.02,1.89-6.65,2.13-2.63.24-5.27.61-7.9,1.09-1.25.21-2.46.5-3.64.88-1.18.38-2.22.9-3.12,1.56-.9.66-1.61,1.52-2.13,2.6-.52,1.08-.78,2.37-.78,3.9,0,1.32.38,2.43,1.14,3.33.76.9,1.68,1.61,2.75,2.13,1.07.52,2.25.88,3.53,1.09,1.28.21,2.44.31,3.48.31,1.32,0,2.74-.17,4.26-.52,1.52-.35,2.96-.94,4.31-1.77,1.35-.83,2.48-1.89,3.38-3.17.9-1.28,1.35-2.86,1.35-4.73v-8.83Z"/>
    <path class="cls-3" d="M1058.92,330.03h8.94v-16.11h11.85v16.11h10.71v8.83h-10.71v28.68c0,1.25.05,2.32.16,3.22.1.9.35,1.66.73,2.29.38.62.95,1.09,1.71,1.4.76.31,1.8.47,3.12.47.83,0,1.66-.02,2.5-.05.83-.03,1.66-.16,2.49-.36v9.15c-1.32.14-2.6.28-3.85.42-1.25.14-2.53.21-3.84.21-3.12,0-5.63-.3-7.54-.88-1.91-.59-3.4-1.46-4.47-2.6-1.08-1.14-1.8-2.58-2.18-4.31-.38-1.73-.61-3.71-.68-5.92v-31.7h-8.94v-8.83Z"/>
    <path class="cls-3" d="M1099.24,309.56h11.85v11.22h-11.85v-11.22ZM1099.24,330.03h11.85v53.73h-11.85v-53.73Z"/>
    <path class="cls-3" d="M1118.67,330.03h12.89l13.61,41.26h.21l13.09-41.26h12.26l-19.23,53.73h-13.3l-19.54-53.73Z"/>
    <path class="cls-3" d="M1222.91,371.81c0,1.46.19,2.49.57,3.12s1.13.94,2.23.94h1.25c.48,0,1.04-.07,1.66-.21v8.21c-.42.14-.95.29-1.61.47-.66.17-1.33.33-2.03.47-.69.14-1.39.24-2.08.31-.69.07-1.28.1-1.77.1-2.43,0-4.43-.49-6.03-1.46-1.59-.97-2.63-2.67-3.12-5.09-2.36,2.29-5.25,3.95-8.68,4.99-3.43,1.04-6.74,1.56-9.92,1.56-2.43,0-4.75-.33-6.96-.99-2.22-.66-4.17-1.63-5.87-2.91-1.7-1.28-3.05-2.91-4.05-4.88-1.01-1.97-1.51-4.28-1.51-6.91,0-3.33.61-6.03,1.82-8.11,1.21-2.08,2.81-3.71,4.78-4.88,1.97-1.18,4.19-2.03,6.65-2.55,2.46-.52,4.94-.92,7.43-1.19,2.15-.42,4.19-.71,6.13-.88,1.94-.17,3.65-.47,5.14-.88,1.49-.42,2.67-1.06,3.53-1.92.87-.87,1.3-2.16,1.3-3.9,0-1.52-.36-2.77-1.09-3.74-.73-.97-1.63-1.71-2.7-2.23-1.08-.52-2.27-.87-3.59-1.04-1.32-.17-2.56-.26-3.74-.26-3.33,0-6.06.69-8.21,2.08-2.15,1.39-3.36,3.53-3.64,6.44h-11.85c.21-3.46,1.04-6.34,2.5-8.63,1.45-2.29,3.31-4.12,5.56-5.51,2.25-1.39,4.8-2.35,7.64-2.91,2.84-.55,5.75-.83,8.73-.83,2.63,0,5.23.28,7.79.83,2.56.56,4.87,1.45,6.91,2.7,2.04,1.25,3.69,2.86,4.94,4.83,1.25,1.97,1.87,4.38,1.87,7.22v27.64ZM1211.06,356.84c-1.8,1.18-4.02,1.89-6.65,2.13-2.63.24-5.27.61-7.9,1.09-1.25.21-2.46.5-3.64.88-1.18.38-2.22.9-3.12,1.56-.9.66-1.61,1.52-2.13,2.6-.52,1.08-.78,2.37-.78,3.9,0,1.32.38,2.43,1.14,3.33.76.9,1.68,1.61,2.75,2.13,1.07.52,2.25.88,3.53,1.09,1.28.21,2.44.31,3.48.31,1.32,0,2.74-.17,4.26-.52,1.52-.35,2.96-.94,4.31-1.77,1.35-.83,2.48-1.89,3.38-3.17.9-1.28,1.35-2.86,1.35-4.73v-8.83Z"/>
    <path class="cls-3" d="M1315.2,383.76h-11.22v-7.27h-.21c-1.59,3.12-3.92,5.35-6.96,6.7s-6.27,2.03-9.67,2.03c-4.23,0-7.92-.75-11.07-2.23-3.15-1.49-5.77-3.52-7.85-6.08-2.08-2.56-3.64-5.59-4.68-9.09-1.04-3.5-1.56-7.26-1.56-11.28,0-4.85.66-9.04,1.97-12.58,1.32-3.53,3.07-6.44,5.25-8.73,2.18-2.29,4.68-3.97,7.48-5.04,2.81-1.07,5.66-1.61,8.57-1.61,1.66,0,3.36.16,5.09.47,1.73.31,3.39.81,4.99,1.51,1.59.69,3.07,1.58,4.42,2.65,1.35,1.08,2.48,2.34,3.38,3.79h.21v-27.44h11.85v74.2ZM1273.83,357.47c0,2.29.29,4.54.88,6.76.59,2.22,1.49,4.19,2.7,5.92,1.21,1.73,2.75,3.12,4.62,4.16,1.87,1.04,4.09,1.56,6.65,1.56s4.9-.55,6.81-1.66c1.91-1.11,3.46-2.56,4.68-4.37,1.21-1.8,2.11-3.83,2.7-6.08.59-2.25.88-4.55.88-6.91,0-5.96-1.33-10.6-4-13.93-2.67-3.33-6.29-4.99-10.86-4.99-2.77,0-5.11.57-7.02,1.71-1.91,1.14-3.46,2.63-4.68,4.47-1.21,1.84-2.08,3.92-2.6,6.24-.52,2.32-.78,4.69-.78,7.12Z"/>
    <path class="cls-3" d="M1337.33,359.96c0,2.08.29,4.09.88,6.03.59,1.94,1.47,3.64,2.65,5.09,1.18,1.46,2.67,2.62,4.47,3.48,1.8.87,3.95,1.3,6.44,1.3,3.46,0,6.25-.74,8.37-2.23,2.11-1.49,3.69-3.72,4.73-6.7h11.22c-.62,2.91-1.7,5.51-3.22,7.79-1.52,2.29-3.36,4.21-5.51,5.77-2.15,1.56-4.56,2.74-7.22,3.53-2.67.8-5.46,1.2-8.37,1.2-4.23,0-7.97-.69-11.22-2.08-3.26-1.39-6.01-3.33-8.26-5.82-2.25-2.49-3.95-5.47-5.09-8.94-1.14-3.46-1.71-7.27-1.71-11.43,0-3.81.61-7.43,1.82-10.86,1.21-3.43,2.94-6.44,5.2-9.04,2.25-2.6,4.97-4.66,8.16-6.18,3.19-1.52,6.79-2.29,10.81-2.29,4.22,0,8.02.88,11.38,2.65,3.36,1.77,6.15,4.1,8.37,7.02,2.22,2.91,3.83,6.25,4.83,10.03,1,3.78,1.26,7.67.78,11.69h-39.49ZM1364.98,352.17c-.14-1.87-.54-3.67-1.19-5.4-.66-1.73-1.56-3.24-2.7-4.52-1.14-1.28-2.53-2.32-4.16-3.12-1.63-.8-3.45-1.2-5.46-1.2s-3.97.36-5.66,1.09c-1.7.73-3.15,1.73-4.37,3.01-1.21,1.28-2.18,2.79-2.91,4.52-.73,1.73-1.13,3.6-1.19,5.61h27.64Z"/>
    <path class="cls-3" d="M843.48,514.01h-11.22v-7.27h-.21c-1.59,3.12-3.92,5.35-6.96,6.7s-6.27,2.03-9.67,2.03c-4.23,0-7.92-.75-11.07-2.23-3.15-1.49-5.77-3.52-7.85-6.08-2.08-2.56-3.64-5.59-4.68-9.09-1.04-3.5-1.56-7.26-1.56-11.28,0-4.85.66-9.04,1.97-12.58,1.32-3.53,3.07-6.44,5.25-8.73,2.18-2.29,4.68-3.97,7.48-5.04,2.81-1.07,5.66-1.61,8.57-1.61,1.66,0,3.36.16,5.09.47,1.73.31,3.39.81,4.99,1.51,1.59.69,3.07,1.58,4.42,2.65,1.35,1.08,2.48,2.34,3.38,3.79h.21v-27.44h11.85v74.2ZM802.12,487.72c0,2.29.29,4.54.88,6.76.59,2.22,1.49,4.19,2.7,5.92,1.21,1.73,2.75,3.12,4.62,4.16,1.87,1.04,4.09,1.56,6.65,1.56s4.9-.55,6.81-1.66c1.91-1.11,3.46-2.56,4.68-4.37,1.21-1.8,2.11-3.83,2.7-6.08.59-2.25.88-4.55.88-6.91,0-5.96-1.33-10.6-4-13.93-2.67-3.33-6.29-4.99-10.86-4.99-2.77,0-5.11.57-7.02,1.71-1.91,1.14-3.46,2.63-4.68,4.47-1.21,1.84-2.08,3.92-2.6,6.24-.52,2.32-.78,4.69-.78,7.12Z"/>
    <path class="cls-3" d="M865.62,490.22c0,2.08.29,4.09.88,6.03.59,1.94,1.47,3.64,2.65,5.09,1.18,1.46,2.67,2.62,4.47,3.48,1.8.87,3.95,1.3,6.44,1.3,3.46,0,6.25-.74,8.37-2.23,2.11-1.49,3.69-3.72,4.73-6.7h11.22c-.62,2.91-1.7,5.51-3.22,7.79-1.52,2.29-3.36,4.21-5.51,5.77-2.15,1.56-4.56,2.74-7.22,3.53-2.67.8-5.46,1.2-8.37,1.2-4.23,0-7.97-.69-11.22-2.08-3.26-1.39-6.01-3.33-8.26-5.82-2.25-2.49-3.95-5.47-5.09-8.94-1.14-3.46-1.71-7.27-1.71-11.43,0-3.81.61-7.43,1.82-10.86,1.21-3.43,2.94-6.44,5.2-9.04,2.25-2.6,4.97-4.66,8.16-6.18,3.19-1.52,6.79-2.29,10.81-2.29,4.22,0,8.02.88,11.38,2.65,3.36,1.77,6.15,4.1,8.37,7.02,2.22,2.91,3.83,6.25,4.83,10.03,1,3.78,1.26,7.67.78,11.69h-39.49ZM893.26,482.42c-.14-1.87-.54-3.67-1.19-5.4-.66-1.73-1.56-3.24-2.7-4.52-1.14-1.28-2.53-2.32-4.16-3.12-1.63-.8-3.45-1.2-5.46-1.2s-3.97.36-5.66,1.09c-1.7.73-3.15,1.73-4.37,3.01-1.21,1.28-2.18,2.79-2.91,4.52-.73,1.73-1.13,3.6-1.19,5.61h27.64Z"/>
    <path class="cls-3" d="M923.09,496.76c.35,3.46,1.66,5.89,3.95,7.27,2.29,1.39,5.02,2.08,8.21,2.08,1.11,0,2.37-.09,3.79-.26,1.42-.17,2.75-.5,4-.99,1.25-.48,2.27-1.2,3.07-2.13.8-.94,1.16-2.16,1.09-3.69-.07-1.52-.62-2.77-1.66-3.74-1.04-.97-2.37-1.75-4-2.34-1.63-.59-3.48-1.09-5.56-1.51-2.08-.42-4.19-.87-6.34-1.35-2.22-.48-4.35-1.07-6.39-1.77-2.04-.69-3.88-1.63-5.51-2.81-1.63-1.18-2.93-2.68-3.9-4.52-.97-1.83-1.46-4.1-1.46-6.81,0-2.91.71-5.35,2.13-7.33,1.42-1.97,3.22-3.57,5.4-4.78,2.18-1.21,4.61-2.06,7.27-2.55,2.67-.48,5.21-.73,7.64-.73,2.77,0,5.42.3,7.95.88,2.53.59,4.81,1.54,6.86,2.86,2.04,1.32,3.74,3.03,5.09,5.14,1.35,2.11,2.2,4.66,2.55,7.64h-12.37c-.56-2.84-1.85-4.74-3.9-5.72-2.04-.97-4.38-1.46-7.02-1.46-.83,0-1.82.07-2.96.21-1.14.14-2.22.4-3.22.78-1,.38-1.85.94-2.55,1.66-.69.73-1.04,1.68-1.04,2.86,0,1.46.5,2.63,1.51,3.53,1,.9,2.32,1.65,3.95,2.23,1.63.59,3.48,1.09,5.56,1.51,2.08.42,4.23.87,6.44,1.35,2.15.49,4.26,1.07,6.34,1.77,2.08.69,3.93,1.63,5.56,2.81,1.63,1.18,2.94,2.67,3.95,4.47,1,1.8,1.51,4.02,1.51,6.65,0,3.19-.73,5.89-2.18,8.11-1.46,2.22-3.34,4.02-5.66,5.4-2.32,1.39-4.9,2.39-7.74,3.01-2.84.62-5.65.94-8.42.94-3.4,0-6.53-.38-9.41-1.14-2.88-.76-5.37-1.92-7.48-3.48-2.11-1.56-3.78-3.5-4.99-5.82-1.21-2.32-1.85-5.07-1.92-8.26h11.85Z"/>
    <path class="cls-3" d="M1004.36,478.26c-.49-3.33-1.82-5.84-4-7.53-2.18-1.7-4.94-2.55-8.26-2.55-1.52,0-3.15.26-4.88.78-1.73.52-3.33,1.49-4.78,2.91-1.46,1.42-2.67,3.4-3.64,5.92-.97,2.53-1.45,5.84-1.45,9.92,0,2.22.26,4.44.78,6.65.52,2.22,1.35,4.19,2.49,5.92,1.14,1.73,2.61,3.14,4.42,4.21,1.8,1.08,3.98,1.61,6.55,1.61,3.46,0,6.32-1.07,8.57-3.22,2.25-2.15,3.65-5.16,4.21-9.04h11.85c-1.11,7-3.76,12.35-7.95,16.06-4.19,3.71-9.75,5.56-16.68,5.56-4.23,0-7.95-.71-11.17-2.13-3.22-1.42-5.94-3.36-8.16-5.82-2.22-2.46-3.9-5.39-5.04-8.78-1.14-3.39-1.71-7.07-1.71-11.02s.55-7.79,1.66-11.33c1.11-3.53,2.77-6.6,4.99-9.2,2.22-2.6,4.97-4.64,8.26-6.13,3.29-1.49,7.15-2.23,11.59-2.23,3.12,0,6.08.4,8.89,1.2,2.81.8,5.3,1.99,7.48,3.59,2.18,1.59,3.97,3.6,5.35,6.03,1.38,2.43,2.22,5.3,2.49,8.63h-11.85Z"/>
    <path class="cls-3" d="M1070.87,502.06c0,1.46.19,2.49.57,3.12s1.13.94,2.23.94h1.25c.48,0,1.04-.07,1.66-.21v8.21c-.42.14-.95.29-1.61.47-.66.17-1.33.33-2.03.47-.69.14-1.39.24-2.08.31-.69.07-1.28.1-1.77.1-2.43,0-4.43-.49-6.03-1.46-1.59-.97-2.63-2.67-3.12-5.09-2.36,2.29-5.25,3.95-8.68,4.99-3.43,1.04-6.74,1.56-9.92,1.56-2.43,0-4.75-.33-6.96-.99-2.22-.66-4.17-1.63-5.87-2.91-1.7-1.28-3.05-2.91-4.05-4.88-1.01-1.97-1.51-4.28-1.51-6.91,0-3.33.61-6.03,1.82-8.11,1.21-2.08,2.81-3.71,4.78-4.88,1.97-1.18,4.19-2.03,6.65-2.55,2.46-.52,4.94-.92,7.43-1.19,2.15-.42,4.19-.71,6.13-.88,1.94-.17,3.65-.47,5.14-.88,1.49-.42,2.67-1.06,3.53-1.92.87-.87,1.3-2.16,1.3-3.9,0-1.52-.36-2.77-1.09-3.74-.73-.97-1.63-1.71-2.7-2.23-1.08-.52-2.27-.87-3.59-1.04-1.32-.17-2.56-.26-3.74-.26-3.33,0-6.06.69-8.21,2.08-2.15,1.39-3.36,3.53-3.64,6.44h-11.85c.21-3.46,1.04-6.34,2.5-8.63,1.45-2.29,3.31-4.12,5.56-5.51,2.25-1.39,4.8-2.35,7.64-2.91,2.84-.55,5.75-.83,8.73-.83,2.63,0,5.23.28,7.79.83,2.56.56,4.87,1.45,6.91,2.7,2.04,1.25,3.69,2.86,4.94,4.83,1.25,1.97,1.87,4.38,1.87,7.22v27.64ZM1059.02,487.1c-1.8,1.18-4.02,1.89-6.65,2.13-2.63.24-5.27.61-7.9,1.09-1.25.21-2.46.5-3.64.88-1.18.38-2.22.9-3.12,1.56-.9.66-1.61,1.52-2.13,2.6-.52,1.08-.78,2.37-.78,3.9,0,1.32.38,2.43,1.14,3.33.76.9,1.68,1.61,2.75,2.13,1.07.52,2.25.88,3.53,1.09,1.28.21,2.44.31,3.48.31,1.32,0,2.74-.17,4.26-.52,1.52-.35,2.96-.94,4.31-1.77,1.35-.83,2.48-1.89,3.38-3.17.9-1.28,1.35-2.86,1.35-4.73v-8.83Z"/>
    <path class="cls-3" d="M1083.65,460.28h11.12v10.39h.21c.35-1.46,1.02-2.87,2.03-4.26,1-1.39,2.22-2.65,3.64-3.79,1.42-1.14,3-2.06,4.73-2.75,1.73-.69,3.5-1.04,5.3-1.04,1.39,0,2.34.04,2.86.1.52.07,1.06.14,1.61.21v11.43c-.83-.14-1.68-.26-2.55-.36-.87-.1-1.71-.16-2.55-.16-2.01,0-3.9.4-5.66,1.19-1.77.8-3.31,1.97-4.62,3.53-1.32,1.56-2.36,3.48-3.12,5.77-.76,2.29-1.14,4.92-1.14,7.9v25.57h-11.85v-53.73Z"/>
    <path class="cls-3" d="M1120.54,439.81h11.85v27.44h.21c.83-1.32,1.83-2.49,3.01-3.53,1.18-1.04,2.48-1.92,3.9-2.65,1.42-.73,2.91-1.28,4.47-1.66,1.56-.38,3.1-.57,4.62-.57,4.23,0,7.91.75,11.07,2.23,3.15,1.49,5.77,3.53,7.85,6.13,2.08,2.6,3.64,5.63,4.68,9.09,1.04,3.47,1.56,7.17,1.56,11.12,0,3.6-.47,7.1-1.4,10.5-.94,3.4-2.36,6.39-4.26,8.99-1.91,2.6-4.31,4.68-7.22,6.24-2.91,1.56-6.34,2.34-10.29,2.34-1.8,0-3.62-.12-5.46-.36-1.84-.24-3.59-.71-5.25-1.4-1.66-.69-3.17-1.59-4.52-2.7-1.35-1.11-2.48-2.56-3.38-4.37h-.21v7.38h-11.22v-74.2ZM1161.91,487.2c0-2.42-.31-4.78-.94-7.07-.62-2.29-1.56-4.31-2.81-6.08-1.25-1.77-2.81-3.19-4.68-4.26-1.87-1.07-4.02-1.61-6.44-1.61-4.99,0-8.75,1.73-11.28,5.2-2.53,3.47-3.79,8.07-3.79,13.82,0,2.7.33,5.21.99,7.53.66,2.32,1.64,4.31,2.96,5.98,1.32,1.66,2.89,2.98,4.73,3.95,1.83.97,3.96,1.46,6.39,1.46,2.7,0,4.99-.55,6.86-1.66,1.87-1.11,3.41-2.55,4.62-4.31,1.21-1.77,2.08-3.78,2.6-6.03.52-2.25.78-4.55.78-6.91Z"/>
    <path class="cls-3" d="M1208.36,515.47c-4.3,0-8.12-.71-11.48-2.13-3.36-1.42-6.2-3.38-8.52-5.87-2.32-2.49-4.09-5.47-5.3-8.94-1.21-3.46-1.82-7.27-1.82-11.43s.61-7.86,1.82-11.33c1.21-3.46,2.98-6.44,5.3-8.94,2.32-2.49,5.16-4.45,8.52-5.87,3.36-1.42,7.19-2.13,11.48-2.13s8.12.71,11.48,2.13c3.36,1.42,6.2,3.38,8.52,5.87,2.32,2.49,4.09,5.47,5.3,8.94,1.21,3.47,1.82,7.24,1.82,11.33s-.61,7.97-1.82,11.43c-1.21,3.47-2.98,6.44-5.3,8.94-2.32,2.49-5.16,4.45-8.52,5.87-3.36,1.42-7.19,2.13-11.48,2.13ZM1208.36,506.12c2.63,0,4.92-.55,6.86-1.66,1.94-1.11,3.53-2.56,4.78-4.37,1.25-1.8,2.16-3.83,2.75-6.08.59-2.25.88-4.55.88-6.91s-.3-4.57-.88-6.86c-.59-2.29-1.51-4.31-2.75-6.08s-2.84-3.2-4.78-4.31c-1.94-1.11-4.23-1.66-6.86-1.66s-4.92.56-6.86,1.66c-1.94,1.11-3.53,2.55-4.78,4.31s-2.17,3.79-2.75,6.08c-.59,2.29-.88,4.57-.88,6.86s.29,4.66.88,6.91c.59,2.25,1.51,4.28,2.75,6.08,1.25,1.8,2.84,3.26,4.78,4.37,1.94,1.11,4.23,1.66,6.86,1.66Z"/>
    <path class="cls-3" d="M1245.36,460.28h11.22v7.9l.21.21c1.8-2.98,4.16-5.32,7.07-7.02,2.91-1.7,6.13-2.55,9.67-2.55,5.89,0,10.53,1.52,13.93,4.57,3.39,3.05,5.09,7.62,5.09,13.72v36.89h-11.85v-33.78c-.14-4.23-1.04-7.29-2.7-9.2-1.66-1.9-4.26-2.86-7.79-2.86-2.01,0-3.81.36-5.4,1.09-1.59.73-2.95,1.73-4.05,3.01-1.11,1.28-1.97,2.79-2.6,4.52-.62,1.73-.94,3.57-.94,5.51v31.7h-11.85v-53.73Z"/>
    <path class="cls-3" d="M1305.32,439.81h11.85v11.22h-11.85v-11.22ZM1305.32,460.28h11.85v53.73h-11.85v-53.73Z"/>
    <path class="cls-3" d="M1328.19,460.28h43.65v8.31l-30.76,36.06h32.32v9.35h-47.29v-8.31l29.72-36.06h-27.64v-9.35Z"/>
    <path class="cls-3" d="M1427.02,502.06c0,1.46.19,2.49.57,3.12s1.13.94,2.23.94h1.25c.48,0,1.04-.07,1.66-.21v8.21c-.42.14-.95.29-1.61.47-.66.17-1.33.33-2.03.47-.69.14-1.39.24-2.08.31-.69.07-1.28.1-1.77.1-2.43,0-4.43-.49-6.03-1.46-1.59-.97-2.63-2.67-3.12-5.09-2.36,2.29-5.25,3.95-8.68,4.99-3.43,1.04-6.74,1.56-9.92,1.56-2.43,0-4.75-.33-6.96-.99-2.22-.66-4.17-1.63-5.87-2.91-1.7-1.28-3.05-2.91-4.05-4.88-1.01-1.97-1.51-4.28-1.51-6.91,0-3.33.61-6.03,1.82-8.11,1.21-2.08,2.81-3.71,4.78-4.88,1.97-1.18,4.19-2.03,6.65-2.55,2.46-.52,4.94-.92,7.43-1.19,2.15-.42,4.19-.71,6.13-.88,1.94-.17,3.65-.47,5.14-.88,1.49-.42,2.67-1.06,3.53-1.92.87-.87,1.3-2.16,1.3-3.9,0-1.52-.36-2.77-1.09-3.74-.73-.97-1.63-1.71-2.7-2.23-1.08-.52-2.27-.87-3.59-1.04-1.32-.17-2.56-.26-3.74-.26-3.33,0-6.06.69-8.21,2.08-2.15,1.39-3.36,3.53-3.64,6.44h-11.85c.21-3.46,1.04-6.34,2.5-8.63,1.45-2.29,3.31-4.12,5.56-5.51,2.25-1.39,4.8-2.35,7.64-2.91,2.84-.55,5.75-.83,8.73-.83,2.63,0,5.23.28,7.79.83,2.56.56,4.87,1.45,6.91,2.7,2.04,1.25,3.69,2.86,4.94,4.83,1.25,1.97,1.87,4.38,1.87,7.22v27.64ZM1415.17,487.1c-1.8,1.18-4.02,1.89-6.65,2.13-2.63.24-5.27.61-7.9,1.09-1.25.21-2.46.5-3.64.88-1.18.38-2.22.9-3.12,1.56-.9.66-1.61,1.52-2.13,2.6-.52,1.08-.78,2.37-.78,3.9,0,1.32.38,2.43,1.14,3.33.76.9,1.68,1.61,2.75,2.13,1.07.52,2.25.88,3.53,1.09,1.28.21,2.44.31,3.48.31,1.32,0,2.74-.17,4.26-.52,1.52-.35,2.96-.94,4.31-1.77,1.35-.83,2.48-1.89,3.38-3.17.9-1.28,1.35-2.86,1.35-4.73v-8.83Z"/>
    <path class="cls-3" d="M1453.42,530.64c1.25.55,2.39.97,3.43,1.25,1.04.28,2.15.42,3.33.42.69,0,1.42-.05,2.18-.16.76-.1,1.46-.31,2.08-.62.62-.31,1.12-.75,1.51-1.3.38-.56.57-1.28.57-2.18,0-1.32-.5-2.3-1.51-2.96-1-.66-2.1-.99-3.27-.99-1.53,0-2.88.35-4.05,1.04l-2.29-1.97,5.82-7.79c-3.4-.21-6.44-.87-9.15-1.97-3.19-1.46-5.89-3.41-8.11-5.87-2.22-2.46-3.9-5.39-5.04-8.78-1.14-3.39-1.71-7.07-1.71-11.02s.55-7.79,1.66-11.33c1.11-3.53,2.77-6.6,4.99-9.2,2.22-2.6,4.97-4.64,8.26-6.13,3.29-1.49,7.15-2.23,11.59-2.23,3.12,0,6.08.4,8.89,1.2,2.81.8,5.3,1.99,7.48,3.59,2.18,1.59,3.97,3.6,5.35,6.03,1.38,2.43,2.22,5.3,2.49,8.63h-11.85c-.49-3.33-1.82-5.84-4-7.53-2.18-1.7-4.94-2.55-8.26-2.55-1.52,0-3.15.26-4.88.78-1.73.52-3.33,1.49-4.78,2.91-1.46,1.42-2.67,3.4-3.64,5.92-.97,2.53-1.45,5.84-1.45,9.92,0,2.22.26,4.44.78,6.65.52,2.22,1.35,4.19,2.49,5.92,1.14,1.73,2.61,3.14,4.42,4.21,1.8,1.08,3.98,1.61,6.55,1.61,3.46,0,6.32-1.07,8.57-3.22,2.25-2.15,3.65-5.16,4.21-9.04h11.85c-1.11,7-3.78,12.37-8,16.11-3.53,3.12-8.11,4.92-13.72,5.4l-3.74,4.78.1.1c.42-.14.9-.24,1.46-.31.55-.07,1.21-.1,1.97-.1,1.04,0,2.08.16,3.12.47,1.04.31,1.97.8,2.81,1.46.83.66,1.52,1.47,2.08,2.44.55.97.83,2.11.83,3.43,0,1.8-.38,3.29-1.14,4.47-.76,1.18-1.73,2.13-2.91,2.86-1.18.73-2.51,1.28-4,1.66-1.49.38-3,.57-4.52.57-1.94,0-3.83-.19-5.66-.57-1.84-.38-3.52-.99-5.04-1.82l1.87-4.16Z"/>
    <path class="cls-3" d="M1542.58,502.06c0,1.46.19,2.49.57,3.12s1.13.94,2.23.94h1.25c.48,0,1.04-.07,1.66-.21v8.21c-.42.14-.95.29-1.61.47-.66.17-1.33.33-2.03.47-.69.14-1.39.24-2.08.31-.69.07-1.28.1-1.77.1-2.43,0-4.43-.49-6.03-1.46-1.59-.97-2.63-2.67-3.12-5.09-2.36,2.29-5.25,3.95-8.68,4.99-3.43,1.04-6.74,1.56-9.92,1.56-2.43,0-4.75-.33-6.96-.99-2.22-.66-4.17-1.63-5.87-2.91-1.7-1.28-3.05-2.91-4.05-4.88-1.01-1.97-1.51-4.28-1.51-6.91,0-3.33.61-6.03,1.82-8.11,1.21-2.08,2.81-3.71,4.78-4.88,1.97-1.18,4.19-2.03,6.65-2.55,2.46-.52,4.94-.92,7.43-1.19,2.15-.42,4.19-.71,6.13-.88,1.94-.17,3.65-.47,5.14-.88,1.49-.42,2.67-1.06,3.53-1.92.87-.87,1.3-2.16,1.3-3.9,0-1.52-.36-2.77-1.09-3.74-.73-.97-1.63-1.71-2.7-2.23-1.08-.52-2.27-.87-3.59-1.04-1.32-.17-2.56-.26-3.74-.26-3.33,0-6.06.69-8.21,2.08-2.15,1.39-3.36,3.53-3.64,6.44h-11.85c.21-3.46,1.04-6.34,2.5-8.63,1.45-2.29,3.31-4.12,5.56-5.51,2.25-1.39,4.8-2.35,7.64-2.91,2.84-.55,5.75-.83,8.73-.83,2.63,0,5.23.28,7.79.83,2.56.56,4.87,1.45,6.91,2.7,2.04,1.25,3.69,2.86,4.94,4.83,1.25,1.97,1.87,4.38,1.87,7.22v27.64ZM1539.26,439.19c-.28,1.66-.68,3.22-1.2,4.68s-1.27,2.7-2.23,3.74c-.9,1.11-2.01,1.97-3.33,2.6-1.32.62-2.91.94-4.78.94-1.18,0-2.43-.19-3.74-.57-1.32-.38-2.63-.85-3.95-1.4-1.59-.69-2.88-1.18-3.85-1.46-.97-.28-2.04-.42-3.22-.42-1.25,0-2.23.36-2.96,1.09-.73.73-1.23,1.78-1.51,3.17h-5.92c.21-1.32.59-2.67,1.14-4.05.55-1.38,1.28-2.65,2.18-3.79.9-1.14,1.97-2.08,3.22-2.81s2.67-1.09,4.26-1.09c1.32,0,2.51.12,3.59.36,1.07.24,2.68.82,4.83,1.71,1.46.62,2.65,1.09,3.59,1.4.93.31,1.89.47,2.86.47,1.52,0,2.68-.42,3.48-1.25.8-.83,1.37-1.94,1.71-3.33h5.82ZM1530.74,487.1c-1.8,1.18-4.02,1.89-6.65,2.13-2.63.24-5.27.61-7.9,1.09-1.25.21-2.46.5-3.64.88-1.18.38-2.22.9-3.12,1.56-.9.66-1.61,1.52-2.13,2.6-.52,1.08-.78,2.37-.78,3.9,0,1.32.38,2.43,1.14,3.33.76.9,1.68,1.61,2.75,2.13,1.07.52,2.25.88,3.53,1.09,1.28.21,2.44.31,3.48.31,1.32,0,2.74-.17,4.26-.52,1.52-.35,2.96-.94,4.31-1.77,1.35-.83,2.48-1.89,3.38-3.17.9-1.28,1.35-2.86,1.35-4.73v-8.83Z"/>
    <path class="cls-3" d="M1580,515.47c-4.3,0-8.12-.71-11.48-2.13-3.36-1.42-6.2-3.38-8.52-5.87-2.32-2.49-4.09-5.47-5.3-8.94-1.21-3.46-1.82-7.27-1.82-11.43s.61-7.86,1.82-11.33c1.21-3.46,2.98-6.44,5.3-8.94,2.32-2.49,5.16-4.45,8.52-5.87,3.36-1.42,7.19-2.13,11.48-2.13s8.12.71,11.48,2.13c3.36,1.42,6.2,3.38,8.52,5.87,2.32,2.49,4.09,5.47,5.3,8.94,1.21,3.47,1.82,7.24,1.82,11.33s-.61,7.97-1.82,11.43c-1.21,3.47-2.98,6.44-5.3,8.94-2.32,2.49-5.16,4.45-8.52,5.87-3.36,1.42-7.19,2.13-11.48,2.13ZM1580,506.12c2.63,0,4.92-.55,6.86-1.66,1.94-1.11,3.53-2.56,4.78-4.37,1.25-1.8,2.16-3.83,2.75-6.08.59-2.25.88-4.55.88-6.91s-.3-4.57-.88-6.86c-.59-2.29-1.51-4.31-2.75-6.08s-2.84-3.2-4.78-4.31c-1.94-1.11-4.23-1.66-6.86-1.66s-4.92.56-6.86,1.66c-1.94,1.11-3.53,2.55-4.78,4.31s-2.17,3.79-2.75,6.08c-.59,2.29-.88,4.57-.88,6.86s.29,4.66.88,6.91c.59,2.25,1.51,4.28,2.75,6.08,1.25,1.8,2.84,3.26,4.78,4.37,1.94,1.11,4.23,1.66,6.86,1.66Z"/>
  </g>
  <rect class="cls-3" x="63.54" y="57.44" width="594.2" height="594.2" rx="297.1" ry="297.1"/>
  <g>
    <path class="cls-2" d="M247.99,182.1h-27.59v192.3h27.59c18.96,0,36.64-5.54,51.55-15.05v-114.83h38.48c-13.69-36.43-48.88-62.43-90.03-62.43Z"/>
    <path class="cls-2" d="M363.28,430.82c0-33.83,15.29-64.09,39.32-84.27v-88.17h-89.2v192.3h51.71c-1.18-6.45-1.82-13.08-1.82-19.87h0Z"/>
    <path class="cls-2" d="M473.29,334.67c-21.25,0-40.9,6.94-56.84,18.66-2.4,1.76-4.71,3.64-6.93,5.61-2.42,2.15-4.74,4.41-6.93,6.79-15.79,17.14-25.46,40-25.46,65.09,0,6.81.72,13.45,2.08,19.87.49,2.34,1.09,4.65,1.75,6.93.68,2.35,1.44,4.66,2.29,6.93,13.69,36.43,48.88,62.43,90.03,62.43h27.59v-192.3h-27.59Z"/>
  </g>
</svg>