<?xml version="1.0" encoding="UTF-8"?>
<svg id="Layer_1" data-name="Layer 1" xmlns="http://www.w3.org/2000/svg" viewBox="0 0 1920 709.27">
  <defs>
    <style>
      .cls-1 {
        fill: #fa441a;
      }

      .cls-2 {
        fill: #fff;
      }

      .cls-3 {
        fill: #03254d;
      }
    </style>
  </defs>
  <rect class="cls-3" x="60.61" y="56.47" width="1808.45" height="596.13" rx="298.07" ry="298.07"/>
  <g>
    <path class="cls-2" d="M792.62,199.27h11.26v7.3h.21c1.67-3.13,4-5.37,6.99-6.73,2.99-1.36,6.22-2.03,9.7-2.03,4.24,0,7.94.75,11.1,2.24,3.16,1.5,5.79,3.55,7.87,6.15s3.65,5.65,4.69,9.12c1.04,3.48,1.56,7.19,1.56,11.16,0,3.61-.47,7.13-1.41,10.53-.94,3.41-2.36,6.41-4.27,9.02-1.91,2.61-4.33,4.69-7.25,6.26s-6.36,2.35-10.32,2.35c-1.74,0-3.48-.16-5.21-.47-1.74-.31-3.41-.82-5-1.51-1.6-.69-3.08-1.58-4.43-2.66-1.36-1.08-2.49-2.35-3.39-3.81h-.21v26.9h-11.89v-73.82ZM834.12,226.28c0-2.43-.31-4.8-.94-7.09-.63-2.29-1.56-4.33-2.81-6.1-1.25-1.77-2.81-3.2-4.69-4.27-1.88-1.08-4.03-1.62-6.46-1.62-5,0-8.78,1.74-11.31,5.21-2.54,3.48-3.81,8.1-3.81,13.87,0,2.71.33,5.23.99,7.56.66,2.33,1.65,4.33,2.97,6,1.32,1.67,2.9,2.99,4.74,3.96,1.84.97,3.98,1.46,6.41,1.46,2.71,0,5-.56,6.88-1.67,1.88-1.11,3.42-2.55,4.64-4.33,1.22-1.77,2.09-3.79,2.61-6.05.52-2.26.78-4.57.78-6.93Z"/>
    <path class="cls-2" d="M856.32,178.73h11.89v74.44h-11.89v-74.44Z"/>
    <path class="cls-2" d="M926.29,241.19c0,1.46.19,2.5.57,3.13.38.63,1.13.94,2.24.94h1.25c.49,0,1.04-.07,1.67-.21v8.24c-.42.14-.96.29-1.62.47-.66.17-1.34.33-2.03.47-.7.14-1.39.24-2.09.31-.7.07-1.29.1-1.77.1-2.43,0-4.45-.49-6.05-1.46-1.6-.97-2.64-2.67-3.13-5.11-2.36,2.29-5.27,3.96-8.71,5-3.44,1.04-6.76,1.56-9.96,1.56-2.43,0-4.76-.33-6.99-.99-2.23-.66-4.19-1.63-5.89-2.92-1.7-1.29-3.06-2.92-4.07-4.9-1.01-1.98-1.51-4.29-1.51-6.93,0-3.34.61-6.05,1.82-8.13,1.22-2.09,2.81-3.72,4.8-4.9,1.98-1.18,4.21-2.03,6.67-2.55,2.47-.52,4.95-.92,7.46-1.2,2.15-.42,4.2-.71,6.15-.89,1.95-.17,3.67-.47,5.16-.89,1.49-.42,2.68-1.06,3.54-1.93.87-.87,1.3-2.17,1.3-3.91,0-1.53-.36-2.78-1.09-3.75-.73-.97-1.63-1.72-2.71-2.24-1.08-.52-2.28-.87-3.6-1.04-1.32-.17-2.57-.26-3.75-.26-3.34,0-6.08.7-8.24,2.09-2.16,1.39-3.37,3.54-3.65,6.46h-11.89c.21-3.48,1.04-6.36,2.5-8.65,1.46-2.29,3.32-4.13,5.58-5.53,2.26-1.39,4.81-2.36,7.66-2.92,2.85-.56,5.77-.83,8.76-.83,2.64,0,5.25.28,7.82.83,2.57.56,4.88,1.46,6.93,2.71,2.05,1.25,3.7,2.87,4.95,4.85,1.25,1.98,1.88,4.4,1.88,7.25v27.73ZM914.4,226.17c-1.81,1.18-4.03,1.89-6.67,2.14-2.64.24-5.28.61-7.92,1.09-1.25.21-2.47.5-3.65.89-1.18.38-2.23.9-3.13,1.56-.9.66-1.62,1.53-2.14,2.61-.52,1.08-.78,2.38-.78,3.91,0,1.32.38,2.43,1.15,3.34.76.9,1.68,1.62,2.76,2.14,1.08.52,2.26.89,3.54,1.09,1.29.21,2.45.31,3.49.31,1.32,0,2.74-.17,4.27-.52,1.53-.35,2.97-.94,4.33-1.77s2.48-1.89,3.39-3.18c.9-1.29,1.36-2.87,1.36-4.74v-8.86Z"/>
    <path class="cls-2" d="M933.69,199.27h8.97v-16.16h11.89v16.16h10.74v8.86h-10.74v28.78c0,1.25.05,2.33.16,3.23.1.9.35,1.67.73,2.29.38.63.95,1.09,1.72,1.41.76.31,1.81.47,3.13.47.83,0,1.67-.02,2.5-.05.83-.03,1.67-.16,2.5-.36v9.17c-1.32.14-2.61.28-3.86.42-1.25.14-2.54.21-3.86.21-3.13,0-5.65-.3-7.56-.89-1.91-.59-3.41-1.46-4.48-2.61-1.08-1.15-1.81-2.59-2.19-4.33-.38-1.74-.61-3.72-.68-5.94v-31.8h-8.97v-8.86Z"/>
    <path class="cls-2" d="M1018.97,241.19c0,1.46.19,2.5.57,3.13.38.63,1.13.94,2.24.94h1.25c.49,0,1.04-.07,1.67-.21v8.24c-.42.14-.96.29-1.62.47-.66.17-1.34.33-2.03.47-.7.14-1.39.24-2.09.31-.7.07-1.29.1-1.77.1-2.43,0-4.45-.49-6.05-1.46-1.6-.97-2.64-2.67-3.13-5.11-2.36,2.29-5.27,3.96-8.71,5-3.44,1.04-6.76,1.56-9.96,1.56-2.43,0-4.76-.33-6.99-.99-2.23-.66-4.19-1.63-5.89-2.92-1.7-1.29-3.06-2.92-4.07-4.9-1.01-1.98-1.51-4.29-1.51-6.93,0-3.34.61-6.05,1.82-8.13,1.22-2.09,2.81-3.72,4.8-4.9,1.98-1.18,4.21-2.03,6.67-2.55,2.47-.52,4.95-.92,7.46-1.2,2.15-.42,4.2-.71,6.15-.89,1.95-.17,3.67-.47,5.16-.89,1.49-.42,2.68-1.06,3.54-1.93.87-.87,1.3-2.17,1.3-3.91,0-1.53-.36-2.78-1.09-3.75-.73-.97-1.63-1.72-2.71-2.24-1.08-.52-2.28-.87-3.6-1.04-1.32-.17-2.57-.26-3.75-.26-3.34,0-6.08.7-8.24,2.09-2.16,1.39-3.37,3.54-3.65,6.46h-11.89c.21-3.48,1.04-6.36,2.5-8.65,1.46-2.29,3.32-4.13,5.58-5.53,2.26-1.39,4.81-2.36,7.66-2.92,2.85-.56,5.77-.83,8.76-.83,2.64,0,5.25.28,7.82.83,2.57.56,4.88,1.46,6.93,2.71,2.05,1.25,3.7,2.87,4.95,4.85,1.25,1.98,1.88,4.4,1.88,7.25v27.73ZM1007.09,226.17c-1.81,1.18-4.03,1.89-6.67,2.14-2.64.24-5.28.61-7.92,1.09-1.25.21-2.47.5-3.65.89-1.18.38-2.23.9-3.13,1.56-.9.66-1.62,1.53-2.14,2.61-.52,1.08-.78,2.38-.78,3.91,0,1.32.38,2.43,1.15,3.34.76.9,1.68,1.62,2.76,2.14,1.08.52,2.26.89,3.54,1.09,1.29.21,2.45.31,3.49.31,1.32,0,2.74-.17,4.27-.52,1.53-.35,2.97-.94,4.33-1.77s2.48-1.89,3.39-3.18c.9-1.29,1.36-2.87,1.36-4.74v-8.86Z"/>
    <path class="cls-2" d="M1026.48,199.27h8.86v-4.48c0-3.4.42-6.17,1.25-8.29.83-2.12,1.95-3.75,3.34-4.9,1.39-1.15,2.97-1.91,4.74-2.29,1.77-.38,3.63-.57,5.58-.57,3.82,0,6.6.24,8.34.73v9.28c-.77-.21-1.58-.36-2.45-.47-.87-.1-1.9-.16-3.08-.16-1.6,0-2.97.38-4.12,1.15-1.15.77-1.72,2.26-1.72,4.48v5.53h10.11v8.86h-10.11v45.04h-11.89v-45.04h-8.86v-8.86Z"/>
    <path class="cls-2" d="M1089.35,254.64c-4.31,0-8.15-.71-11.52-2.14-3.37-1.42-6.22-3.39-8.55-5.89-2.33-2.5-4.1-5.49-5.32-8.97-1.22-3.48-1.82-7.3-1.82-11.47s.61-7.89,1.82-11.36c1.22-3.47,2.99-6.46,5.32-8.97,2.33-2.5,5.18-4.47,8.55-5.89,3.37-1.42,7.21-2.14,11.52-2.14s8.15.71,11.52,2.14c3.37,1.43,6.22,3.39,8.55,5.89,2.33,2.5,4.1,5.49,5.32,8.97,1.22,3.48,1.82,7.26,1.82,11.36s-.61,7.99-1.82,11.47c-1.22,3.48-2.99,6.46-5.32,8.97-2.33,2.5-5.18,4.47-8.55,5.89-3.37,1.42-7.21,2.14-11.52,2.14ZM1089.35,245.25c2.64,0,4.93-.56,6.88-1.67,1.95-1.11,3.54-2.57,4.8-4.38,1.25-1.81,2.17-3.84,2.76-6.1.59-2.26.89-4.57.89-6.93s-.3-4.59-.89-6.88c-.59-2.29-1.51-4.33-2.76-6.1-1.25-1.77-2.85-3.21-4.8-4.33-1.95-1.11-4.24-1.67-6.88-1.67s-4.94.56-6.88,1.67c-1.95,1.11-3.54,2.55-4.8,4.33-1.25,1.77-2.17,3.81-2.76,6.1-.59,2.29-.89,4.59-.89,6.88s.29,4.68.89,6.93c.59,2.26,1.51,4.29,2.76,6.1,1.25,1.81,2.85,3.27,4.8,4.38,1.95,1.11,4.24,1.67,6.88,1.67Z"/>
    <path class="cls-2" d="M1126.47,199.27h11.16v10.43h.21c.35-1.46,1.02-2.88,2.03-4.27,1.01-1.39,2.22-2.66,3.65-3.81,1.42-1.15,3.01-2.07,4.74-2.76,1.74-.69,3.51-1.04,5.32-1.04,1.39,0,2.35.04,2.87.1.52.07,1.06.14,1.62.21v11.47c-.83-.14-1.69-.26-2.55-.37-.87-.1-1.72-.16-2.55-.16-2.02,0-3.91.4-5.68,1.2-1.77.8-3.32,1.98-4.64,3.54-1.32,1.56-2.36,3.49-3.13,5.79-.77,2.29-1.15,4.94-1.15,7.92v25.65h-11.89v-53.9Z"/>
    <path class="cls-2" d="M1163.17,199.27h11.26v7.51h.31c.9-1.32,1.88-2.54,2.92-3.65,1.04-1.11,2.21-2.05,3.49-2.82,1.29-.76,2.76-1.37,4.43-1.82,1.67-.45,3.58-.68,5.73-.68,3.27,0,6.31.73,9.12,2.19,2.81,1.46,4.81,3.72,6,6.78,2.02-2.78,4.34-4.97,6.99-6.57,2.64-1.6,5.94-2.4,9.91-2.4,5.7,0,10.13,1.39,13.29,4.17,3.16,2.78,4.74,7.44,4.74,13.97v37.22h-11.89v-31.49c0-2.15-.07-4.12-.21-5.89-.14-1.77-.54-3.3-1.2-4.59-.66-1.29-1.65-2.28-2.97-2.97-1.32-.69-3.13-1.04-5.42-1.04-4.03,0-6.95,1.25-8.76,3.75-1.81,2.5-2.71,6.05-2.71,10.63v31.59h-11.89v-34.62c0-3.75-.68-6.58-2.03-8.5-1.36-1.91-3.84-2.87-7.45-2.87-1.53,0-3.01.31-4.43.94-1.43.63-2.68,1.53-3.75,2.71-1.08,1.18-1.95,2.64-2.61,4.38-.66,1.74-.99,3.72-.99,5.94v32.01h-11.89v-53.9Z"/>
    <path class="cls-2" d="M1299.02,241.19c0,1.46.19,2.5.57,3.13.38.63,1.13.94,2.24.94h1.25c.49,0,1.04-.07,1.67-.21v8.24c-.42.14-.96.29-1.62.47-.66.17-1.34.33-2.03.47-.7.14-1.39.24-2.09.31-.7.07-1.29.1-1.77.1-2.43,0-4.45-.49-6.05-1.46-1.6-.97-2.64-2.67-3.13-5.11-2.36,2.29-5.27,3.96-8.71,5-3.44,1.04-6.76,1.56-9.96,1.56-2.43,0-4.76-.33-6.99-.99-2.23-.66-4.19-1.63-5.89-2.92-1.7-1.29-3.06-2.92-4.07-4.9-1.01-1.98-1.51-4.29-1.51-6.93,0-3.34.61-6.05,1.82-8.13,1.22-2.09,2.81-3.72,4.8-4.9,1.98-1.18,4.21-2.03,6.67-2.55,2.47-.52,4.95-.92,7.46-1.2,2.15-.42,4.2-.71,6.15-.89,1.95-.17,3.67-.47,5.16-.89,1.49-.42,2.68-1.06,3.54-1.93.87-.87,1.3-2.17,1.3-3.91,0-1.53-.36-2.78-1.09-3.75-.73-.97-1.63-1.72-2.71-2.24-1.08-.52-2.28-.87-3.6-1.04-1.32-.17-2.57-.26-3.75-.26-3.34,0-6.08.7-8.24,2.09-2.16,1.39-3.37,3.54-3.65,6.46h-11.89c.21-3.48,1.04-6.36,2.5-8.65,1.46-2.29,3.32-4.13,5.58-5.53,2.26-1.39,4.81-2.36,7.66-2.92,2.85-.56,5.77-.83,8.76-.83,2.64,0,5.25.28,7.82.83,2.57.56,4.88,1.46,6.93,2.71,2.05,1.25,3.7,2.87,4.95,4.85,1.25,1.98,1.88,4.4,1.88,7.25v27.73ZM1287.14,226.17c-1.81,1.18-4.03,1.89-6.67,2.14-2.64.24-5.28.61-7.92,1.09-1.25.21-2.47.5-3.65.89-1.18.38-2.23.9-3.13,1.56-.9.66-1.62,1.53-2.14,2.61-.52,1.08-.78,2.38-.78,3.91,0,1.32.38,2.43,1.15,3.34.76.9,1.68,1.62,2.76,2.14,1.08.52,2.26.89,3.54,1.09,1.29.21,2.45.31,3.49.31,1.32,0,2.74-.17,4.27-.52,1.53-.35,2.97-.94,4.33-1.77s2.48-1.89,3.39-3.18c.9-1.29,1.36-2.87,1.36-4.74v-8.86Z"/>
    <path class="cls-2" d="M792.62,309.41h11.89v11.26h-11.89v-11.26ZM792.62,329.95h11.89v53.9h-11.89v-53.9Z"/>
    <path class="cls-2" d="M817.44,329.95h11.26v7.92l.21.21c1.81-2.99,4.17-5.33,7.09-7.04,2.92-1.7,6.15-2.55,9.7-2.55,5.91,0,10.56,1.53,13.97,4.59,3.41,3.06,5.11,7.65,5.11,13.76v37.01h-11.89v-33.89c-.14-4.24-1.04-7.31-2.71-9.23-1.67-1.91-4.27-2.87-7.82-2.87-2.02,0-3.82.37-5.42,1.09-1.6.73-2.96,1.74-4.07,3.02-1.11,1.29-1.98,2.8-2.61,4.54-.63,1.74-.94,3.58-.94,5.53v31.8h-11.89v-53.9Z"/>
    <path class="cls-2" d="M871.86,329.95h8.97v-16.16h11.89v16.16h10.74v8.86h-10.74v28.78c0,1.25.05,2.33.16,3.23.1.9.35,1.67.73,2.29.38.63.95,1.09,1.72,1.41.76.31,1.81.47,3.13.47.83,0,1.67-.02,2.5-.05.83-.03,1.67-.16,2.5-.36v9.17c-1.32.14-2.61.28-3.86.42-1.25.14-2.54.21-3.86.21-3.13,0-5.65-.3-7.56-.89-1.91-.59-3.41-1.46-4.48-2.61-1.08-1.15-1.81-2.59-2.19-4.33-.38-1.74-.61-3.72-.68-5.94v-31.8h-8.97v-8.86Z"/>
    <path class="cls-2" d="M921.28,359.98c0,2.09.29,4.1.89,6.05.59,1.95,1.48,3.65,2.66,5.11,1.18,1.46,2.68,2.62,4.48,3.49,1.81.87,3.96,1.3,6.46,1.3,3.48,0,6.27-.75,8.39-2.24,2.12-1.49,3.7-3.74,4.74-6.73h11.26c-.63,2.92-1.7,5.53-3.23,7.82-1.53,2.29-3.37,4.22-5.53,5.79-2.16,1.56-4.57,2.75-7.25,3.54-2.68.8-5.47,1.2-8.39,1.2-4.24,0-7.99-.7-11.26-2.08-3.27-1.39-6.03-3.34-8.29-5.84-2.26-2.5-3.96-5.49-5.11-8.97-1.15-3.47-1.72-7.3-1.72-11.47,0-3.82.61-7.46,1.82-10.9,1.22-3.44,2.95-6.46,5.21-9.07,2.26-2.61,4.99-4.67,8.18-6.2,3.2-1.53,6.81-2.29,10.84-2.29,4.24,0,8.04.89,11.42,2.66,3.37,1.77,6.17,4.12,8.39,7.04,2.22,2.92,3.84,6.27,4.85,10.06,1.01,3.79,1.27,7.7.78,11.73h-39.62ZM949.01,352.16c-.14-1.88-.54-3.68-1.2-5.42-.66-1.74-1.56-3.25-2.71-4.54-1.15-1.29-2.54-2.33-4.17-3.13-1.63-.8-3.46-1.2-5.47-1.2s-3.98.37-5.68,1.09c-1.7.73-3.16,1.74-4.38,3.02-1.22,1.29-2.19,2.8-2.92,4.54-.73,1.74-1.13,3.61-1.2,5.63h27.73Z"/>
    <path class="cls-2" d="M969.97,329.95h11.16v10.43h.21c.35-1.46,1.02-2.88,2.03-4.27,1.01-1.39,2.22-2.66,3.65-3.81,1.42-1.15,3.01-2.07,4.74-2.76,1.74-.69,3.51-1.04,5.32-1.04,1.39,0,2.35.04,2.87.1.52.07,1.06.14,1.62.21v11.47c-.83-.14-1.69-.26-2.55-.37-.87-.1-1.72-.16-2.55-.16-2.02,0-3.91.4-5.68,1.2-1.77.8-3.32,1.98-4.64,3.54-1.32,1.56-2.36,3.49-3.13,5.79-.77,2.29-1.15,4.94-1.15,7.92v25.65h-11.89v-53.9Z"/>
    <path class="cls-2" d="M1051.82,371.87c0,1.46.19,2.5.57,3.13.38.63,1.13.94,2.24.94h1.25c.49,0,1.04-.07,1.67-.21v8.24c-.42.14-.96.29-1.62.47-.66.17-1.34.33-2.03.47-.7.14-1.39.24-2.09.31-.7.07-1.29.1-1.77.1-2.43,0-4.45-.49-6.05-1.46-1.6-.97-2.64-2.67-3.13-5.11-2.36,2.29-5.27,3.96-8.71,5-3.44,1.04-6.76,1.56-9.96,1.56-2.43,0-4.76-.33-6.99-.99-2.23-.66-4.19-1.63-5.89-2.92-1.7-1.29-3.06-2.92-4.07-4.9-1.01-1.98-1.51-4.29-1.51-6.93,0-3.34.61-6.05,1.82-8.13,1.22-2.09,2.81-3.72,4.8-4.9,1.98-1.18,4.21-2.03,6.67-2.55,2.47-.52,4.95-.92,7.46-1.2,2.15-.42,4.2-.71,6.15-.89,1.95-.17,3.67-.47,5.16-.89,1.49-.42,2.68-1.06,3.54-1.93.87-.87,1.3-2.17,1.3-3.91,0-1.53-.36-2.78-1.09-3.75-.73-.97-1.63-1.72-2.71-2.24-1.08-.52-2.28-.87-3.6-1.04-1.32-.17-2.57-.26-3.75-.26-3.34,0-6.08.7-8.24,2.09-2.16,1.39-3.37,3.54-3.65,6.46h-11.89c.21-3.48,1.04-6.36,2.5-8.65,1.46-2.29,3.32-4.13,5.58-5.53,2.26-1.39,4.81-2.36,7.66-2.92,2.85-.56,5.77-.83,8.76-.83,2.64,0,5.25.28,7.82.83,2.57.56,4.88,1.46,6.93,2.71,2.05,1.25,3.7,2.87,4.95,4.85,1.25,1.98,1.88,4.4,1.88,7.25v27.73ZM1039.93,356.85c-1.81,1.18-4.03,1.89-6.67,2.14-2.64.24-5.28.61-7.92,1.09-1.25.21-2.47.5-3.65.89-1.18.38-2.23.9-3.13,1.56-.9.66-1.62,1.53-2.14,2.61-.52,1.08-.78,2.38-.78,3.91,0,1.32.38,2.43,1.15,3.34.76.9,1.68,1.62,2.76,2.14,1.08.52,2.26.89,3.54,1.09,1.29.21,2.45.31,3.49.31,1.32,0,2.74-.17,4.27-.52,1.53-.35,2.97-.94,4.33-1.77s2.48-1.89,3.39-3.18c.9-1.29,1.36-2.87,1.36-4.74v-8.86Z"/>
    <path class="cls-2" d="M1059.22,329.95h8.97v-16.16h11.89v16.16h10.74v8.86h-10.74v28.78c0,1.25.05,2.33.16,3.23.1.9.35,1.67.73,2.29.38.63.95,1.09,1.72,1.41.76.31,1.81.47,3.13.47.83,0,1.67-.02,2.5-.05.83-.03,1.67-.16,2.5-.36v9.17c-1.32.14-2.61.28-3.86.42-1.25.14-2.54.21-3.86.21-3.13,0-5.65-.3-7.56-.89-1.91-.59-3.41-1.46-4.48-2.61-1.08-1.15-1.81-2.59-2.19-4.33-.38-1.74-.61-3.72-.68-5.94v-31.8h-8.97v-8.86Z"/>
    <path class="cls-2" d="M1099.67,309.41h11.89v11.26h-11.89v-11.26ZM1099.67,329.95h11.89v53.9h-11.89v-53.9Z"/>
    <path class="cls-2" d="M1119.17,329.95h12.93l13.66,41.39h.21l13.14-41.39h12.3l-19.29,53.9h-13.35l-19.6-53.9Z"/>
    <path class="cls-2" d="M1223.75,371.87c0,1.46.19,2.5.57,3.13.38.63,1.13.94,2.24.94h1.25c.49,0,1.04-.07,1.67-.21v8.24c-.42.14-.96.29-1.62.47-.66.17-1.34.33-2.03.47-.7.14-1.39.24-2.09.31-.7.07-1.29.1-1.77.1-2.43,0-4.45-.49-6.05-1.46-1.6-.97-2.64-2.67-3.13-5.11-2.36,2.29-5.27,3.96-8.71,5-3.44,1.04-6.76,1.56-9.96,1.56-2.43,0-4.76-.33-6.99-.99-2.23-.66-4.19-1.63-5.89-2.92-1.7-1.29-3.06-2.92-4.07-4.9-1.01-1.98-1.51-4.29-1.51-6.93,0-3.34.61-6.05,1.82-8.13,1.22-2.09,2.81-3.72,4.8-4.9,1.98-1.18,4.21-2.03,6.67-2.55,2.47-.52,4.95-.92,7.46-1.2,2.15-.42,4.2-.71,6.15-.89,1.95-.17,3.67-.47,5.16-.89,1.49-.42,2.68-1.06,3.54-1.93.87-.87,1.3-2.17,1.3-3.91,0-1.53-.36-2.78-1.09-3.75-.73-.97-1.63-1.72-2.71-2.24-1.08-.52-2.28-.87-3.6-1.04-1.32-.17-2.57-.26-3.75-.26-3.34,0-6.08.7-8.24,2.09-2.16,1.39-3.37,3.54-3.65,6.46h-11.89c.21-3.48,1.04-6.36,2.5-8.65,1.46-2.29,3.32-4.13,5.58-5.53,2.26-1.39,4.81-2.36,7.66-2.92,2.85-.56,5.77-.83,8.76-.83,2.64,0,5.25.28,7.82.83,2.57.56,4.88,1.46,6.93,2.71,2.05,1.25,3.7,2.87,4.95,4.85,1.25,1.98,1.88,4.4,1.88,7.25v27.73ZM1211.86,356.85c-1.81,1.18-4.03,1.89-6.67,2.14-2.64.24-5.28.61-7.92,1.09-1.25.21-2.47.5-3.65.89-1.18.38-2.23.9-3.13,1.56-.9.66-1.62,1.53-2.14,2.61-.52,1.08-.78,2.38-.78,3.91,0,1.32.38,2.43,1.15,3.34.76.9,1.68,1.62,2.76,2.14,1.08.52,2.26.89,3.54,1.09,1.29.21,2.45.31,3.49.31,1.32,0,2.74-.17,4.27-.52,1.53-.35,2.97-.94,4.33-1.77s2.48-1.89,3.39-3.18c.9-1.29,1.36-2.87,1.36-4.74v-8.86Z"/>
    <path class="cls-2" d="M1316.33,383.86h-11.26v-7.3h-.21c-1.6,3.13-3.93,5.37-6.99,6.73-3.06,1.35-6.29,2.03-9.7,2.03-4.24,0-7.94-.75-11.1-2.24-3.16-1.49-5.79-3.53-7.87-6.1-2.09-2.57-3.65-5.61-4.69-9.12-1.04-3.51-1.56-7.28-1.56-11.31,0-4.86.66-9.07,1.98-12.62,1.32-3.54,3.08-6.46,5.27-8.76,2.19-2.29,4.69-3.98,7.51-5.06,2.82-1.08,5.68-1.62,8.6-1.62,1.67,0,3.37.16,5.11.47,1.74.31,3.4.82,5,1.51,1.6.7,3.08,1.58,4.43,2.66,1.35,1.08,2.48,2.35,3.39,3.81h.21v-27.53h11.89v74.44ZM1274.83,357.48c0,2.29.29,4.55.89,6.78.59,2.23,1.49,4.21,2.71,5.94,1.22,1.74,2.76,3.13,4.64,4.17,1.88,1.04,4.1,1.56,6.67,1.56s4.92-.56,6.83-1.67c1.91-1.11,3.47-2.57,4.69-4.38,1.22-1.81,2.12-3.84,2.71-6.1.59-2.26.89-4.57.89-6.93,0-5.98-1.34-10.63-4.01-13.97-2.68-3.34-6.31-5-10.9-5-2.78,0-5.13.57-7.04,1.72-1.91,1.15-3.48,2.64-4.69,4.48-1.22,1.84-2.09,3.93-2.61,6.26-.52,2.33-.78,4.71-.78,7.14Z"/>
    <path class="cls-2" d="M1338.54,359.98c0,2.09.29,4.1.89,6.05.59,1.95,1.48,3.65,2.66,5.11,1.18,1.46,2.68,2.62,4.48,3.49,1.81.87,3.96,1.3,6.46,1.3,3.48,0,6.27-.75,8.39-2.24,2.12-1.49,3.7-3.74,4.74-6.73h11.26c-.63,2.92-1.7,5.53-3.23,7.82-1.53,2.29-3.37,4.22-5.53,5.79-2.16,1.56-4.57,2.75-7.25,3.54-2.68.8-5.47,1.2-8.39,1.2-4.24,0-7.99-.7-11.26-2.08-3.27-1.39-6.03-3.34-8.29-5.84-2.26-2.5-3.96-5.49-5.11-8.97-1.15-3.47-1.72-7.3-1.72-11.47,0-3.82.61-7.46,1.82-10.9,1.22-3.44,2.95-6.46,5.21-9.07,2.26-2.61,4.99-4.67,8.18-6.2,3.2-1.53,6.81-2.29,10.84-2.29,4.24,0,8.04.89,11.42,2.66,3.37,1.77,6.17,4.12,8.39,7.04,2.22,2.92,3.84,6.27,4.85,10.06,1.01,3.79,1.27,7.7.78,11.73h-39.62ZM1366.27,352.16c-.14-1.88-.54-3.68-1.2-5.42-.66-1.74-1.56-3.25-2.71-4.54-1.15-1.29-2.54-2.33-4.17-3.13-1.63-.8-3.46-1.2-5.47-1.2s-3.98.37-5.68,1.09c-1.7.73-3.16,1.74-4.38,3.02-1.22,1.29-2.19,2.8-2.92,4.54-.73,1.74-1.13,3.61-1.2,5.63h27.73Z"/>
    <path class="cls-2" d="M843.08,514.53h-11.26v-7.3h-.21c-1.6,3.13-3.93,5.37-6.99,6.73-3.06,1.35-6.29,2.03-9.7,2.03-4.24,0-7.94-.75-11.1-2.24-3.16-1.49-5.79-3.53-7.87-6.1-2.09-2.57-3.65-5.61-4.69-9.12-1.04-3.51-1.56-7.28-1.56-11.31,0-4.86.66-9.07,1.98-12.62,1.32-3.54,3.08-6.46,5.27-8.76,2.19-2.29,4.69-3.98,7.51-5.06,2.82-1.08,5.68-1.62,8.6-1.62,1.67,0,3.37.16,5.11.47,1.74.31,3.4.82,5,1.51,1.6.7,3.08,1.58,4.43,2.66,1.35,1.08,2.48,2.35,3.39,3.81h.21v-27.53h11.89v74.44ZM801.59,488.15c0,2.29.29,4.55.89,6.78.59,2.23,1.49,4.21,2.71,5.94,1.22,1.74,2.76,3.13,4.64,4.17,1.88,1.04,4.1,1.56,6.67,1.56s4.92-.56,6.83-1.67c1.91-1.11,3.47-2.57,4.69-4.38,1.22-1.81,2.12-3.84,2.71-6.1.59-2.26.89-4.57.89-6.93,0-5.98-1.34-10.63-4.01-13.97-2.68-3.34-6.31-5-10.9-5-2.78,0-5.13.57-7.04,1.72-1.91,1.15-3.48,2.64-4.69,4.48-1.22,1.84-2.09,3.93-2.61,6.26-.52,2.33-.78,4.71-.78,7.14Z"/>
    <path class="cls-2" d="M865.29,490.66c0,2.09.29,4.1.89,6.05.59,1.95,1.48,3.65,2.66,5.11,1.18,1.46,2.68,2.62,4.48,3.49,1.81.87,3.96,1.3,6.46,1.3,3.48,0,6.27-.75,8.39-2.24,2.12-1.49,3.7-3.74,4.74-6.73h11.26c-.63,2.92-1.7,5.53-3.23,7.82-1.53,2.29-3.37,4.22-5.53,5.79-2.16,1.56-4.57,2.75-7.25,3.54-2.68.8-5.47,1.2-8.39,1.2-4.24,0-7.99-.7-11.26-2.08-3.27-1.39-6.03-3.34-8.29-5.84-2.26-2.5-3.96-5.49-5.11-8.97-1.15-3.47-1.72-7.3-1.72-11.47,0-3.82.61-7.46,1.82-10.9,1.22-3.44,2.95-6.46,5.21-9.07,2.26-2.61,4.99-4.67,8.18-6.2,3.2-1.53,6.81-2.29,10.84-2.29,4.24,0,8.04.89,11.42,2.66,3.37,1.77,6.17,4.12,8.39,7.04,2.22,2.92,3.84,6.27,4.85,10.06,1.01,3.79,1.27,7.7.78,11.73h-39.62ZM893.03,482.84c-.14-1.88-.54-3.68-1.2-5.42-.66-1.74-1.56-3.25-2.71-4.54-1.15-1.29-2.54-2.33-4.17-3.13-1.63-.8-3.46-1.2-5.47-1.2s-3.98.37-5.68,1.09c-1.7.73-3.16,1.74-4.38,3.02-1.22,1.29-2.19,2.8-2.92,4.54-.73,1.74-1.13,3.61-1.2,5.63h27.73Z"/>
    <path class="cls-2" d="M922.95,497.23c.35,3.48,1.67,5.91,3.96,7.3,2.29,1.39,5.04,2.09,8.24,2.09,1.11,0,2.38-.09,3.81-.26,1.42-.17,2.76-.5,4.01-.99,1.25-.49,2.28-1.2,3.08-2.14.8-.94,1.16-2.17,1.09-3.7-.07-1.53-.63-2.78-1.67-3.75-1.04-.97-2.38-1.75-4.01-2.35-1.63-.59-3.49-1.09-5.58-1.51-2.09-.42-4.21-.87-6.36-1.36-2.23-.49-4.36-1.08-6.41-1.77-2.05-.69-3.89-1.63-5.53-2.82-1.63-1.18-2.94-2.69-3.91-4.54-.97-1.84-1.46-4.12-1.46-6.83,0-2.92.71-5.37,2.14-7.35,1.42-1.98,3.23-3.58,5.42-4.8,2.19-1.22,4.62-2.07,7.3-2.55,2.68-.49,5.23-.73,7.66-.73,2.78,0,5.44.3,7.98.89,2.54.59,4.83,1.55,6.88,2.87,2.05,1.32,3.75,3.04,5.11,5.16,1.36,2.12,2.21,4.68,2.55,7.66h-12.41c-.56-2.85-1.86-4.76-3.91-5.73-2.05-.97-4.4-1.46-7.04-1.46-.83,0-1.82.07-2.97.21-1.15.14-2.23.4-3.23.78-1.01.38-1.86.94-2.55,1.67-.7.73-1.04,1.69-1.04,2.87,0,1.46.5,2.64,1.51,3.54,1.01.9,2.33,1.65,3.96,2.24,1.63.59,3.49,1.09,5.58,1.51s4.24.87,6.46,1.36c2.15.49,4.27,1.08,6.36,1.77,2.09.7,3.94,1.63,5.58,2.81,1.63,1.18,2.95,2.68,3.96,4.48,1.01,1.81,1.51,4.03,1.51,6.67,0,3.2-.73,5.91-2.19,8.13-1.46,2.23-3.35,4.03-5.68,5.42-2.33,1.39-4.92,2.4-7.77,3.02-2.85.63-5.67.94-8.45.94-3.41,0-6.55-.38-9.44-1.15-2.89-.76-5.39-1.93-7.51-3.49-2.12-1.56-3.79-3.51-5-5.84-1.22-2.33-1.86-5.09-1.93-8.29h11.89Z"/>
    <path class="cls-2" d="M1004.48,478.67c-.49-3.34-1.82-5.85-4.01-7.56-2.19-1.7-4.95-2.55-8.29-2.55-1.53,0-3.16.26-4.9.78-1.74.52-3.34,1.5-4.8,2.92-1.46,1.43-2.68,3.41-3.65,5.94-.97,2.54-1.46,5.86-1.46,9.96,0,2.23.26,4.45.78,6.67.52,2.23,1.36,4.21,2.5,5.94,1.15,1.74,2.62,3.15,4.43,4.22,1.81,1.08,4,1.62,6.57,1.62,3.48,0,6.34-1.08,8.6-3.23,2.26-2.15,3.67-5.18,4.22-9.07h11.89c-1.11,7.02-3.77,12.39-7.98,16.11-4.21,3.72-9.78,5.58-16.73,5.58-4.24,0-7.98-.71-11.21-2.14-3.23-1.42-5.96-3.37-8.18-5.84-2.23-2.47-3.91-5.4-5.06-8.81-1.15-3.4-1.72-7.09-1.72-11.05s.56-7.82,1.67-11.36c1.11-3.54,2.78-6.62,5-9.23,2.22-2.61,4.99-4.66,8.29-6.15,3.3-1.49,7.18-2.24,11.63-2.24,3.13,0,6.1.4,8.91,1.2,2.82.8,5.32,2,7.51,3.6,2.19,1.6,3.98,3.62,5.37,6.05,1.39,2.43,2.22,5.32,2.5,8.65h-11.89Z"/>
    <path class="cls-2" d="M1071.21,502.54c0,1.46.19,2.5.57,3.13.38.63,1.13.94,2.24.94h1.25c.49,0,1.04-.07,1.67-.21v8.24c-.42.14-.96.29-1.62.47-.66.17-1.34.33-2.03.47-.7.14-1.39.24-2.09.31-.7.07-1.29.1-1.77.1-2.43,0-4.45-.49-6.05-1.46-1.6-.97-2.64-2.67-3.13-5.11-2.36,2.29-5.27,3.96-8.71,5-3.44,1.04-6.76,1.56-9.96,1.56-2.43,0-4.76-.33-6.99-.99-2.23-.66-4.19-1.63-5.89-2.92-1.7-1.29-3.06-2.92-4.07-4.9-1.01-1.98-1.51-4.29-1.51-6.93,0-3.34.61-6.05,1.82-8.13,1.22-2.09,2.81-3.72,4.8-4.9,1.98-1.18,4.21-2.03,6.67-2.55,2.47-.52,4.95-.92,7.46-1.2,2.15-.42,4.2-.71,6.15-.89,1.95-.17,3.67-.47,5.16-.89,1.49-.42,2.68-1.06,3.54-1.93.87-.87,1.3-2.17,1.3-3.91,0-1.53-.36-2.78-1.09-3.75-.73-.97-1.63-1.72-2.71-2.24-1.08-.52-2.28-.87-3.6-1.04-1.32-.17-2.57-.26-3.75-.26-3.34,0-6.08.7-8.24,2.09-2.16,1.39-3.37,3.54-3.65,6.46h-11.89c.21-3.48,1.04-6.36,2.5-8.65,1.46-2.29,3.32-4.13,5.58-5.53,2.26-1.39,4.81-2.36,7.66-2.92,2.85-.56,5.77-.83,8.76-.83,2.64,0,5.25.28,7.82.83,2.57.56,4.88,1.46,6.93,2.71,2.05,1.25,3.7,2.87,4.95,4.85,1.25,1.98,1.88,4.4,1.88,7.25v27.73ZM1059.33,487.53c-1.81,1.18-4.03,1.89-6.67,2.14-2.64.24-5.28.61-7.92,1.09-1.25.21-2.47.5-3.65.89-1.18.38-2.23.9-3.13,1.56-.9.66-1.62,1.53-2.14,2.61-.52,1.08-.78,2.38-.78,3.91,0,1.32.38,2.43,1.15,3.34.76.9,1.68,1.62,2.76,2.14,1.08.52,2.26.89,3.54,1.09,1.29.21,2.45.31,3.49.31,1.32,0,2.74-.17,4.27-.52,1.53-.35,2.97-.94,4.33-1.77s2.48-1.89,3.39-3.18c.9-1.29,1.36-2.87,1.36-4.74v-8.86Z"/>
    <path class="cls-2" d="M1084.04,460.63h11.16v10.43h.21c.35-1.46,1.02-2.88,2.03-4.27,1.01-1.39,2.22-2.66,3.65-3.81,1.42-1.15,3.01-2.07,4.74-2.76,1.74-.69,3.51-1.04,5.32-1.04,1.39,0,2.35.04,2.87.1.52.07,1.06.14,1.62.21v11.47c-.83-.14-1.69-.26-2.55-.37-.87-.1-1.72-.16-2.55-.16-2.02,0-3.91.4-5.68,1.2-1.77.8-3.32,1.98-4.64,3.54-1.32,1.56-2.36,3.49-3.13,5.79-.77,2.29-1.15,4.94-1.15,7.92v25.65h-11.89v-53.9Z"/>
    <path class="cls-2" d="M1121.05,440.09h11.89v27.53h.21c.83-1.32,1.84-2.5,3.02-3.55,1.18-1.04,2.48-1.93,3.91-2.66,1.42-.73,2.92-1.29,4.48-1.67,1.56-.38,3.11-.57,4.64-.57,4.24,0,7.94.75,11.1,2.24,3.16,1.5,5.79,3.55,7.87,6.15s3.65,5.65,4.69,9.12c1.04,3.48,1.56,7.19,1.56,11.16,0,3.61-.47,7.13-1.41,10.53-.94,3.41-2.36,6.41-4.27,9.02-1.91,2.61-4.33,4.69-7.25,6.26s-6.36,2.35-10.32,2.35c-1.81,0-3.63-.12-5.47-.36-1.84-.24-3.6-.71-5.27-1.41-1.67-.69-3.18-1.6-4.54-2.71-1.36-1.11-2.49-2.57-3.39-4.38h-.21v7.4h-11.26v-74.44ZM1162.55,487.63c0-2.43-.31-4.8-.94-7.09-.63-2.29-1.56-4.33-2.81-6.1-1.25-1.77-2.81-3.2-4.69-4.27-1.88-1.08-4.03-1.62-6.46-1.62-5,0-8.78,1.74-11.31,5.21-2.54,3.48-3.81,8.1-3.81,13.87,0,2.71.33,5.23.99,7.56.66,2.33,1.65,4.33,2.97,6,1.32,1.67,2.9,2.99,4.74,3.96,1.84.97,3.98,1.46,6.41,1.46,2.71,0,5-.56,6.88-1.67,1.88-1.11,3.42-2.55,4.64-4.33,1.22-1.77,2.09-3.79,2.61-6.05.52-2.26.78-4.57.78-6.93Z"/>
    <path class="cls-2" d="M1209.15,515.99c-4.31,0-8.15-.71-11.52-2.14-3.37-1.42-6.22-3.39-8.55-5.89-2.33-2.5-4.1-5.49-5.32-8.97-1.22-3.48-1.82-7.3-1.82-11.47s.61-7.89,1.82-11.36c1.22-3.47,2.99-6.46,5.32-8.97,2.33-2.5,5.18-4.47,8.55-5.89,3.37-1.42,7.21-2.14,11.52-2.14s8.15.71,11.52,2.14c3.37,1.43,6.22,3.39,8.55,5.89,2.33,2.5,4.1,5.49,5.32,8.97,1.22,3.48,1.82,7.26,1.82,11.36s-.61,7.99-1.82,11.47c-1.22,3.48-2.99,6.46-5.32,8.97-2.33,2.5-5.18,4.47-8.55,5.89-3.37,1.42-7.21,2.14-11.52,2.14ZM1209.15,506.61c2.64,0,4.93-.56,6.88-1.67,1.95-1.11,3.54-2.57,4.8-4.38,1.25-1.81,2.17-3.84,2.76-6.1.59-2.26.89-4.57.89-6.93s-.3-4.59-.89-6.88c-.59-2.29-1.51-4.33-2.76-6.1-1.25-1.77-2.85-3.21-4.8-4.33-1.95-1.11-4.24-1.67-6.88-1.67s-4.94.56-6.88,1.67c-1.95,1.11-3.54,2.55-4.8,4.33-1.25,1.77-2.17,3.81-2.76,6.1-.59,2.29-.89,4.59-.89,6.88s.29,4.68.89,6.93c.59,2.26,1.51,4.29,2.76,6.1,1.25,1.81,2.85,3.27,4.8,4.38,1.95,1.11,4.24,1.67,6.88,1.67Z"/>
    <path class="cls-2" d="M1246.27,460.63h11.26v7.92l.21.21c1.81-2.99,4.17-5.33,7.09-7.04,2.92-1.7,6.15-2.55,9.7-2.55,5.91,0,10.56,1.53,13.97,4.59,3.41,3.06,5.11,7.65,5.11,13.76v37.01h-11.89v-33.89c-.14-4.24-1.04-7.31-2.71-9.23-1.67-1.91-4.27-2.87-7.82-2.87-2.02,0-3.82.37-5.42,1.09-1.6.73-2.96,1.74-4.07,3.02-1.11,1.29-1.98,2.8-2.61,4.54-.63,1.74-.94,3.58-.94,5.53v31.8h-11.89v-53.9Z"/>
    <path class="cls-2" d="M1306.43,440.09h11.89v11.26h-11.89v-11.26ZM1306.43,460.63h11.89v53.9h-11.89v-53.9Z"/>
    <path class="cls-2" d="M1329.36,460.63h43.79v8.34l-30.86,36.18h32.43v9.38h-47.44v-8.34l29.82-36.18h-27.73v-9.38Z"/>
    <path class="cls-2" d="M1428.52,502.54c0,1.46.19,2.5.57,3.13.38.63,1.13.94,2.24.94h1.25c.49,0,1.04-.07,1.67-.21v8.24c-.42.14-.96.29-1.62.47-.66.17-1.34.33-2.03.47-.7.14-1.39.24-2.09.31-.7.07-1.29.1-1.77.1-2.43,0-4.45-.49-6.05-1.46-1.6-.97-2.64-2.67-3.13-5.11-2.36,2.29-5.27,3.96-8.71,5-3.44,1.04-6.76,1.56-9.96,1.56-2.43,0-4.76-.33-6.99-.99-2.23-.66-4.19-1.63-5.89-2.92-1.7-1.29-3.06-2.92-4.07-4.9-1.01-1.98-1.51-4.29-1.51-6.93,0-3.34.61-6.05,1.82-8.13,1.22-2.09,2.81-3.72,4.8-4.9,1.98-1.18,4.21-2.03,6.67-2.55,2.47-.52,4.95-.92,7.46-1.2,2.15-.42,4.2-.71,6.15-.89,1.95-.17,3.67-.47,5.16-.89,1.49-.42,2.68-1.06,3.54-1.93.87-.87,1.3-2.17,1.3-3.91,0-1.53-.36-2.78-1.09-3.75-.73-.97-1.63-1.72-2.71-2.24-1.08-.52-2.28-.87-3.6-1.04-1.32-.17-2.57-.26-3.75-.26-3.34,0-6.08.7-8.24,2.09-2.16,1.39-3.37,3.54-3.65,6.46h-11.89c.21-3.48,1.04-6.36,2.5-8.65,1.46-2.29,3.32-4.13,5.58-5.53,2.26-1.39,4.81-2.36,7.66-2.92,2.85-.56,5.77-.83,8.76-.83,2.64,0,5.25.28,7.82.83,2.57.56,4.88,1.46,6.93,2.71,2.05,1.25,3.7,2.87,4.95,4.85,1.25,1.98,1.88,4.4,1.88,7.25v27.73ZM1416.63,487.53c-1.81,1.18-4.03,1.89-6.67,2.14-2.64.24-5.28.61-7.92,1.09-1.25.21-2.47.5-3.65.89-1.18.38-2.23.9-3.13,1.56-.9.66-1.62,1.53-2.14,2.61-.52,1.08-.78,2.38-.78,3.91,0,1.32.38,2.43,1.15,3.34.76.9,1.68,1.62,2.76,2.14,1.08.52,2.26.89,3.54,1.09,1.29.21,2.45.31,3.49.31,1.32,0,2.74-.17,4.27-.52,1.53-.35,2.97-.94,4.33-1.77s2.48-1.89,3.39-3.18c.9-1.29,1.36-2.87,1.36-4.74v-8.86Z"/>
    <path class="cls-2" d="M1455,531.21c1.25.56,2.4.97,3.44,1.25,1.04.28,2.15.42,3.34.42.69,0,1.42-.05,2.19-.16.76-.1,1.46-.31,2.09-.63.63-.31,1.13-.75,1.51-1.3.38-.56.57-1.29.57-2.19,0-1.32-.51-2.31-1.51-2.97-1.01-.66-2.1-.99-3.28-.99-1.53,0-2.89.35-4.07,1.04l-2.29-1.98,5.84-7.82c-3.41-.21-6.46-.87-9.18-1.98-3.2-1.46-5.91-3.42-8.13-5.89-2.23-2.47-3.91-5.4-5.06-8.81-1.15-3.4-1.72-7.09-1.72-11.05s.56-7.82,1.67-11.36c1.11-3.54,2.78-6.62,5-9.23,2.22-2.61,4.99-4.66,8.29-6.15,3.3-1.49,7.18-2.24,11.63-2.24,3.13,0,6.1.4,8.91,1.2,2.82.8,5.32,2,7.51,3.6,2.19,1.6,3.98,3.62,5.37,6.05,1.39,2.43,2.22,5.32,2.5,8.65h-11.89c-.49-3.34-1.82-5.85-4.01-7.56-2.19-1.7-4.95-2.55-8.29-2.55-1.53,0-3.16.26-4.9.78-1.74.52-3.34,1.5-4.8,2.92-1.46,1.43-2.68,3.41-3.65,5.94-.97,2.54-1.46,5.86-1.46,9.96,0,2.23.26,4.45.78,6.67.52,2.23,1.36,4.21,2.5,5.94,1.15,1.74,2.62,3.15,4.43,4.22,1.81,1.08,4,1.62,6.57,1.62,3.48,0,6.34-1.08,8.6-3.23,2.26-2.15,3.67-5.18,4.22-9.07h11.89c-1.11,7.02-3.79,12.41-8.03,16.16-3.54,3.13-8.13,4.93-13.76,5.42l-3.75,4.8.1.1c.42-.14.9-.24,1.46-.31.56-.07,1.22-.1,1.98-.1,1.04,0,2.09.16,3.13.47,1.04.31,1.98.8,2.81,1.46.83.66,1.53,1.48,2.09,2.45.56.97.83,2.12.83,3.44,0,1.81-.38,3.3-1.15,4.48-.77,1.18-1.74,2.14-2.92,2.87-1.18.73-2.52,1.29-4.01,1.67-1.5.38-3.01.57-4.54.57-1.95,0-3.84-.19-5.68-.57-1.84-.38-3.53-.99-5.06-1.82l1.88-4.17Z"/>
    <path class="cls-2" d="M1544.46,502.54c0,1.46.19,2.5.57,3.13.38.63,1.13.94,2.24.94h1.25c.49,0,1.04-.07,1.67-.21v8.24c-.42.14-.96.29-1.62.47-.66.17-1.34.33-2.03.47-.7.14-1.39.24-2.09.31-.7.07-1.29.1-1.77.1-2.43,0-4.45-.49-6.05-1.46-1.6-.97-2.64-2.67-3.13-5.11-2.36,2.29-5.27,3.96-8.71,5-3.44,1.04-6.76,1.56-9.96,1.56-2.43,0-4.76-.33-6.99-.99-2.23-.66-4.19-1.63-5.89-2.92-1.7-1.29-3.06-2.92-4.07-4.9-1.01-1.98-1.51-4.29-1.51-6.93,0-3.34.61-6.05,1.82-8.13,1.22-2.09,2.81-3.72,4.8-4.9,1.98-1.18,4.21-2.03,6.67-2.55,2.47-.52,4.95-.92,7.46-1.2,2.15-.42,4.2-.71,6.15-.89,1.95-.17,3.67-.47,5.16-.89,1.49-.42,2.68-1.06,3.54-1.93.87-.87,1.3-2.17,1.3-3.91,0-1.53-.36-2.78-1.09-3.75-.73-.97-1.63-1.72-2.71-2.24-1.08-.52-2.28-.87-3.6-1.04-1.32-.17-2.57-.26-3.75-.26-3.34,0-6.08.7-8.24,2.09-2.16,1.39-3.37,3.54-3.65,6.46h-11.89c.21-3.48,1.04-6.36,2.5-8.65,1.46-2.29,3.32-4.13,5.58-5.53,2.26-1.39,4.81-2.36,7.66-2.92,2.85-.56,5.77-.83,8.76-.83,2.64,0,5.25.28,7.82.83,2.57.56,4.88,1.46,6.93,2.71,2.05,1.25,3.7,2.87,4.95,4.85,1.25,1.98,1.88,4.4,1.88,7.25v27.73ZM1541.12,439.46c-.28,1.67-.68,3.23-1.2,4.69-.52,1.46-1.27,2.71-2.24,3.75-.9,1.11-2.02,1.98-3.34,2.61-1.32.63-2.92.94-4.8.94-1.18,0-2.43-.19-3.75-.57-1.32-.38-2.64-.85-3.96-1.41-1.6-.69-2.89-1.18-3.86-1.46-.97-.28-2.05-.42-3.23-.42-1.25,0-2.24.37-2.97,1.1-.73.73-1.23,1.79-1.51,3.18h-5.94c.21-1.32.59-2.67,1.15-4.07.56-1.39,1.29-2.66,2.19-3.81.9-1.15,1.98-2.09,3.23-2.82,1.25-.73,2.67-1.09,4.27-1.09,1.32,0,2.52.12,3.6.37,1.08.24,2.69.82,4.85,1.72,1.46.63,2.66,1.09,3.6,1.41.94.31,1.89.47,2.87.47,1.53,0,2.69-.42,3.49-1.25.8-.83,1.37-1.95,1.72-3.34h5.84ZM1532.57,487.53c-1.81,1.18-4.03,1.89-6.67,2.14-2.64.24-5.28.61-7.92,1.09-1.25.21-2.47.5-3.65.89-1.18.38-2.23.9-3.13,1.56-.9.66-1.62,1.53-2.14,2.61-.52,1.08-.78,2.38-.78,3.91,0,1.32.38,2.43,1.15,3.34.76.9,1.68,1.62,2.76,2.14,1.08.52,2.26.89,3.54,1.09,1.29.21,2.45.31,3.49.31,1.32,0,2.74-.17,4.27-.52,1.53-.35,2.97-.94,4.33-1.77s2.48-1.89,3.39-3.18c.9-1.29,1.36-2.87,1.36-4.74v-8.86Z"/>
    <path class="cls-2" d="M1581.99,515.99c-4.31,0-8.15-.71-11.52-2.14-3.37-1.42-6.22-3.39-8.55-5.89-2.33-2.5-4.1-5.49-5.32-8.97-1.22-3.48-1.82-7.3-1.82-11.47s.61-7.89,1.82-11.36c1.22-3.47,2.99-6.46,5.32-8.97,2.33-2.5,5.18-4.47,8.55-5.89,3.37-1.42,7.21-2.14,11.52-2.14s8.15.71,11.52,2.14c3.37,1.43,6.22,3.39,8.55,5.89,2.33,2.5,4.1,5.49,5.32,8.97,1.22,3.48,1.82,7.26,1.82,11.36s-.61,7.99-1.82,11.47c-1.22,3.48-2.99,6.46-5.32,8.97-2.33,2.5-5.18,4.47-8.55,5.89-3.37,1.42-7.21,2.14-11.52,2.14ZM1581.99,506.61c2.64,0,4.93-.56,6.88-1.67,1.95-1.11,3.54-2.57,4.8-4.38,1.25-1.81,2.17-3.84,2.76-6.1.59-2.26.89-4.57.89-6.93s-.3-4.59-.89-6.88c-.59-2.29-1.51-4.33-2.76-6.1-1.25-1.77-2.85-3.21-4.8-4.33-1.95-1.11-4.24-1.67-6.88-1.67s-4.94.56-6.88,1.67c-1.95,1.11-3.54,2.55-4.8,4.33-1.25,1.77-2.17,3.81-2.76,6.1-.59,2.29-.89,4.59-.89,6.88s.29,4.68.89,6.93c.59,2.26,1.51,4.29,2.76,6.1,1.25,1.81,2.85,3.27,4.8,4.38,1.95,1.11,4.24,1.67,6.88,1.67Z"/>
  </g>
  <rect class="cls-1" x="60.61" y="56.47" width="596.13" height="596.13" rx="298.07" ry="298.07"/>
  <g>
    <path class="cls-2" d="M245.66,181.54h-27.68v192.93h27.68c19.02,0,36.76-5.56,51.72-15.1v-115.2h38.6c-13.74-36.55-49.04-62.63-90.32-62.63Z"/>
    <path class="cls-2" d="M361.33,431.07c0-33.94,15.34-64.3,39.44-84.54v-88.46h-89.49v192.93h51.88c-1.18-6.47-1.83-13.12-1.83-19.93h0Z"/>
    <path class="cls-2" d="M471.69,334.6c-21.32,0-41.04,6.96-57.02,18.72-2.41,1.77-4.72,3.65-6.95,5.63-2.43,2.16-4.75,4.43-6.95,6.81-15.84,17.19-25.54,40.13-25.54,65.3,0,6.83.73,13.5,2.08,19.93.5,2.35,1.09,4.67,1.76,6.95.68,2.35,1.44,4.67,2.3,6.95,13.74,36.55,49.04,62.63,90.32,62.63h27.68v-192.93h-27.68Z"/>
  </g>
</svg>